<svg width="24" height="24" viewBox="0 0 24 24" fill="none" xmlns="http://www.w3.org/2000/svg">
<path d="M11.4915 7.875C10.6756 7.875 9.87808 8.11693 9.19973 8.57019C8.52138 9.02345 7.99267 9.66769 7.68045 10.4214C7.36824 11.1752 7.28655 12.0046 7.44572 12.8047C7.60488 13.6049 7.99775 14.3399 8.57464 14.9168C9.15153 15.4937 9.88654 15.8866 10.6867 16.0457C11.4869 16.2049 12.3163 16.1232 13.07 15.811C13.8238 15.4988 14.468 14.9701 14.9213 14.2917C15.3745 13.6134 15.6165 12.8158 15.6165 12C15.6152 10.9064 15.1802 9.85787 14.4069 9.08455C13.6336 8.31124 12.5851 7.87624 11.4915 7.875ZM11.4915 14.625C10.9723 14.625 10.4648 14.471 10.0331 14.1826C9.60141 13.8942 9.26495 13.4842 9.06627 13.0045C8.86759 12.5249 8.81561 11.9971 8.9169 11.4879C9.01818 10.9787 9.26819 10.511 9.6353 10.1438C10.0024 9.77673 10.4701 9.52672 10.9793 9.42544C11.4885 9.32415 12.0163 9.37614 12.496 9.57482C12.9757 9.7735 13.3856 10.1099 13.6741 10.5416C13.9625 10.9733 14.1165 11.4808 14.1165 12C14.1157 12.696 13.8389 13.3632 13.3467 13.8553C12.8546 14.3474 12.1874 14.6242 11.4915 14.625Z" fill="#313030" fill-opacity="0.7"/>
<path d="M21.7827 15.1087L20.2935 13.8828C20.5575 12.6415 20.5575 11.3585 20.2935 10.1172L21.7827 8.8913C21.9545 8.75057 22.0705 8.5533 22.1101 8.3348C22.1497 8.11631 22.1102 7.89086 21.9986 7.69885L20.47 5.05121C20.3594 4.85856 20.1839 4.71157 19.9749 4.63659C19.7658 4.5616 19.5369 4.56351 19.3292 4.64199L17.5216 5.31919C16.58 4.46845 15.4691 3.8264 14.2619 3.43519L13.9448 1.53343C13.9089 1.31425 13.7961 1.11503 13.6266 0.971473C13.4572 0.827913 13.2421 0.749399 13.02 0.750003H9.96274C9.74066 0.749407 9.52562 0.827918 9.35616 0.971467C9.18671 1.11502 9.07391 1.31422 9.03799 1.53338L8.72102 3.43519C7.5138 3.82639 6.40294 4.46844 5.46133 5.31919L3.6536 4.64189C3.44585 4.56347 3.21696 4.56159 3.00794 4.63658C2.79893 4.71158 2.62345 4.85855 2.51294 5.05116L0.984302 7.69899C0.872815 7.89102 0.833334 8.11647 0.872929 8.33496C0.912525 8.55344 1.02861 8.7507 1.2004 8.89139L2.68947 10.1172C2.42547 11.3585 2.42547 12.6415 2.68947 13.8828L1.20025 15.1087C1.0285 15.2494 0.912443 15.4467 0.872874 15.6652C0.833305 15.8837 0.872805 16.1091 0.984302 16.3012L2.51299 18.9488C2.62351 19.1414 2.79901 19.2884 3.00806 19.3634C3.2171 19.4384 3.44602 19.4365 3.65379 19.358L5.46138 18.6808C6.40299 19.5316 7.51385 20.1736 8.72107 20.5648L9.03804 22.4666C9.07395 22.6857 9.18673 22.8849 9.35618 23.0285C9.52563 23.1721 9.74066 23.2506 9.96274 23.25H13.02C13.2421 23.2506 13.4571 23.1721 13.6266 23.0286C13.7961 22.885 13.9089 22.6858 13.9448 22.4666L14.2618 20.5648C15.469 20.1736 16.5799 19.5316 17.5215 18.6808L19.3292 19.3581C19.5369 19.4365 19.7658 19.4384 19.9748 19.3634C20.1838 19.2884 20.3593 19.1415 20.4698 18.9488L21.9984 16.301C22.1099 16.1091 22.1494 15.8837 22.1099 15.6652C22.0704 15.4467 21.9544 15.2495 21.7827 15.1087ZM19.4092 17.7862L17.1541 16.9413L16.8126 17.2851C15.873 18.2321 14.6979 18.9113 13.4083 19.2526L12.9395 19.3762L12.5437 21.75H10.4395L10.0437 19.3762L9.57499 19.2526C8.28541 18.9113 7.11023 18.2321 6.17069 17.2851L5.82921 16.9413L3.57372 17.7862L2.5218 15.9638L4.37941 14.4346L4.25285 13.9671C3.90479 12.6788 3.90479 11.3212 4.25285 10.0329L4.37941 9.56546L2.5218 8.03621L3.57396 6.2138L5.82907 7.05868L6.17055 6.71489C7.11009 5.76791 8.28526 5.08872 9.57485 4.74741L10.0436 4.62385L10.4393 2.25H12.5437L12.9394 4.62385L13.4081 4.74741C14.6977 5.08872 15.8729 5.76791 16.8124 6.71489L17.1539 7.05868L19.409 6.2138L20.4612 8.03616L18.6036 9.56546L18.7302 10.0329C19.0782 11.3212 19.0782 12.6788 18.7302 13.9671L18.6036 14.4346L20.4612 15.9638L19.4092 17.7862Z" fill="#313030" fill-opacity="0.7"/>
</svg>
