<svg width="24" height="24" viewBox="0 0 24 24" fill="none" xmlns="http://www.w3.org/2000/svg">
<path d="M1.5 5.25C1.5 4.65326 1.73705 4.08097 2.15901 3.65901C2.58097 3.23705 3.15326 3 3.75 3H20.25C20.8467 3 21.419 3.23705 21.841 3.65901C22.2629 4.08097 22.5 4.65326 22.5 5.25V6.75C22.5002 7.21549 22.3561 7.6696 22.0875 8.04974C21.8188 8.42988 21.4389 8.71734 21 8.8725V9.9C20.5206 9.65471 20.0182 9.45725 19.5 9.3105V9H4.5V17.25C4.5 17.8467 4.73705 18.419 5.15901 18.841C5.58097 19.2629 6.15326 19.5 6.75 19.5H9.3105C9.459 20.0235 9.6555 20.5245 9.9 21H6.75C5.75544 21 4.80161 20.6049 4.09835 19.9016C3.39509 19.1984 3 18.2446 3 17.25V8.8725C2.56113 8.71734 2.18119 8.42988 1.91254 8.04974C1.64389 7.6696 1.49976 7.21549 1.5 6.75V5.25ZM3.75 4.5C3.55109 4.5 3.36032 4.57902 3.21967 4.71967C3.07902 4.86032 3 5.05109 3 5.25V6.75C3 6.94891 3.07902 7.13968 3.21967 7.28033C3.36032 7.42098 3.55109 7.5 3.75 7.5H20.25C20.4489 7.5 20.6397 7.42098 20.7803 7.28033C20.921 7.13968 21 6.94891 21 6.75V5.25C21 5.05109 20.921 4.86032 20.7803 4.71967C20.6397 4.57902 20.4489 4.5 20.25 4.5H3.75ZM17.25 24C19.0402 24 20.7571 23.2888 22.023 22.023C23.2888 20.7571 24 19.0402 24 17.25C24 15.4598 23.2888 13.7429 22.023 12.477C20.7571 11.2112 19.0402 10.5 17.25 10.5C15.4598 10.5 13.7429 11.2112 12.477 12.477C11.2112 13.7429 10.5 15.4598 10.5 17.25C10.5 19.0402 11.2112 20.7571 12.477 22.023C13.7429 23.2888 15.4598 24 17.25 24ZM15.906 14.406L14.5605 15.75H16.875C17.969 15.75 19.0182 16.1846 19.7918 16.9582C20.5654 17.7318 21 18.781 21 19.875V20.25C21 20.4489 20.921 20.6397 20.7803 20.7803C20.6397 20.921 20.4489 21 20.25 21C20.0511 21 19.8603 20.921 19.7197 20.7803C19.579 20.6397 19.5 20.4489 19.5 20.25V19.875C19.5 19.1788 19.2234 18.5111 18.7312 18.0188C18.2389 17.5266 17.5712 17.25 16.875 17.25H14.5605L15.906 18.594C16.0468 18.7348 16.1259 18.9258 16.1259 19.125C16.1259 19.3242 16.0468 19.5152 15.906 19.656C15.7652 19.7968 15.5742 19.8759 15.375 19.8759C15.1758 19.8759 14.9848 19.7968 14.844 19.656L12.216 17.025C12.1467 16.9554 12.0917 16.8728 12.0544 16.782C12.017 16.6912 11.9979 16.5939 11.9982 16.4956C11.9984 16.3974 12.0181 16.3002 12.056 16.2096C12.0939 16.1189 12.1493 16.0367 12.219 15.9675L14.844 13.3425C14.9848 13.2017 15.1758 13.1226 15.375 13.1226C15.5742 13.1226 15.7652 13.2017 15.906 13.3425C16.0468 13.4833 16.1259 13.6743 16.1259 13.8735C16.1259 14.0727 16.0468 14.2637 15.906 14.4045V14.406Z" fill="#313030" fill-opacity="0.7"/>
</svg>
