<svg width="763" height="314" viewBox="0 0 763 314" fill="none" xmlns="http://www.w3.org/2000/svg">
<rect width="763" height="314" rx="8" fill="white"/>
<path d="M46.333 44.058C46.697 44.058 47.0167 44.0113 47.292 43.918C47.572 43.8247 47.803 43.694 47.985 43.526C48.1717 43.3533 48.3117 43.1457 48.405 42.903C48.4983 42.6603 48.545 42.3897 48.545 42.091C48.545 41.797 48.4983 41.5333 48.405 41.3C48.3163 41.0667 48.181 40.8683 47.999 40.705C47.817 40.5417 47.586 40.418 47.306 40.334C47.0307 40.2453 46.7063 40.201 46.333 40.201H44.835V44.058H46.333ZM46.333 38.92C46.991 38.92 47.5603 38.997 48.041 39.151C48.5263 39.305 48.9253 39.522 49.238 39.802C49.5553 40.0773 49.791 40.411 49.945 40.803C50.099 41.1903 50.176 41.6197 50.176 42.091C50.176 42.5717 50.0943 43.0127 49.931 43.414C49.7677 43.8107 49.525 44.1537 49.203 44.443C48.881 44.7277 48.4797 44.9517 47.999 45.115C47.523 45.2737 46.9677 45.353 46.333 45.353H44.835V49H43.197V38.92H46.333ZM52.7599 43.183C52.9839 42.7303 53.2545 42.3757 53.5719 42.119C53.8892 41.8577 54.2695 41.727 54.7129 41.727C54.8669 41.727 55.0115 41.7457 55.1469 41.783C55.2822 41.8157 55.4035 41.867 55.5109 41.937L55.4059 43.071C55.3872 43.1503 55.3569 43.2063 55.3149 43.239C55.2775 43.267 55.2262 43.281 55.1609 43.281C55.0909 43.281 54.9905 43.2693 54.8599 43.246C54.7292 43.218 54.5915 43.204 54.4469 43.204C54.2369 43.204 54.0502 43.2343 53.8869 43.295C53.7282 43.3557 53.5835 43.4443 53.4529 43.561C53.3269 43.6777 53.2149 43.82 53.1169 43.988C53.0189 44.156 52.9279 44.3473 52.8439 44.562V49H51.3389V41.86H52.2139C52.3725 41.86 52.4822 41.8903 52.5429 41.951C52.6035 42.007 52.6455 42.1073 52.6689 42.252L52.7599 43.183ZM59.3478 41.748C59.8751 41.748 60.3511 41.8343 60.7758 42.007C61.2051 42.1797 61.5691 42.4247 61.8678 42.742C62.1711 43.0593 62.4044 43.4443 62.5678 43.897C62.7311 44.3497 62.8128 44.8583 62.8128 45.423C62.8128 45.9877 62.7311 46.4963 62.5678 46.949C62.4044 47.4017 62.1711 47.789 61.8678 48.111C61.5691 48.4283 61.2051 48.6733 60.7758 48.846C60.3511 49.0187 59.8751 49.105 59.3478 49.105C58.8158 49.105 58.3351 49.0187 57.9058 48.846C57.4811 48.6733 57.1171 48.4283 56.8138 48.111C56.5104 47.789 56.2771 47.4017 56.1138 46.949C55.9504 46.4963 55.8688 45.9877 55.8688 45.423C55.8688 44.8583 55.9504 44.3497 56.1138 43.897C56.2771 43.4443 56.5104 43.0593 56.8138 42.742C57.1171 42.4247 57.4811 42.1797 57.9058 42.007C58.3351 41.8343 58.8158 41.748 59.3478 41.748ZM59.3478 47.929C59.9918 47.929 60.4701 47.7143 60.7828 47.285C61.1001 46.851 61.2588 46.2327 61.2588 45.43C61.2588 44.6273 61.1001 44.009 60.7828 43.575C60.4701 43.1363 59.9918 42.917 59.3478 42.917C58.6944 42.917 58.2091 43.1363 57.8918 43.575C57.5744 44.009 57.4158 44.6273 57.4158 45.43C57.4158 46.2327 57.5744 46.851 57.8918 47.285C58.2091 47.7143 58.6944 47.929 59.3478 47.929ZM64.5847 49V43.057L63.8847 42.959C63.7681 42.9357 63.6724 42.8937 63.5977 42.833C63.5277 42.7723 63.4927 42.686 63.4927 42.574V41.958H64.5847V41.657C64.5847 41.2183 64.6547 40.8147 64.7947 40.446C64.9347 40.0773 65.1471 39.7577 65.4317 39.487C65.7164 39.2163 66.0711 39.0063 66.4957 38.857C66.9251 38.703 67.4267 38.626 68.0007 38.626C68.1874 38.626 68.3787 38.6377 68.5747 38.661C68.7754 38.6843 68.9457 38.7193 69.0857 38.766L69.0367 39.55C69.0274 39.648 68.9691 39.704 68.8617 39.718C68.7544 39.7273 68.6121 39.732 68.4347 39.732C68.0007 39.732 67.6321 39.774 67.3287 39.858C67.0254 39.9373 66.7781 40.061 66.5867 40.229C66.3954 40.3923 66.2554 40.5977 66.1667 40.845C66.0827 41.0877 66.0407 41.3723 66.0407 41.699V41.958H70.4157V49H68.9107V43.043H66.0897V49H64.5847ZM73.8582 38.64V49H72.3532V38.64H73.8582ZM80.3988 44.625C80.3988 44.373 80.3615 44.1397 80.2868 43.925C80.2168 43.7057 80.1118 43.5167 79.9718 43.358C79.8318 43.1947 79.6568 43.0687 79.4468 42.98C79.2415 42.8867 79.0035 42.84 78.7328 42.84C78.1868 42.84 77.7575 42.9963 77.4448 43.309C77.1322 43.6217 76.9338 44.0603 76.8498 44.625H80.3988ZM76.8078 45.549C76.8265 45.955 76.8895 46.3073 76.9968 46.606C77.1042 46.9 77.2465 47.145 77.4238 47.341C77.6058 47.537 77.8205 47.684 78.0678 47.782C78.3198 47.8753 78.5998 47.922 78.9078 47.922C79.2018 47.922 79.4562 47.8893 79.6708 47.824C79.8855 47.754 80.0722 47.6793 80.2308 47.6C80.3895 47.516 80.5248 47.4413 80.6368 47.376C80.7488 47.306 80.8515 47.271 80.9448 47.271C81.0662 47.271 81.1595 47.3177 81.2248 47.411L81.6518 47.964C81.4745 48.174 81.2738 48.3513 81.0498 48.496C80.8258 48.6407 80.5878 48.7597 80.3358 48.853C80.0838 48.9417 79.8248 49.0047 79.5588 49.042C79.2928 49.084 79.0338 49.105 78.7818 49.105C78.2872 49.105 77.8275 49.0233 77.4028 48.86C76.9828 48.692 76.6165 48.447 76.3038 48.125C75.9958 47.803 75.7532 47.404 75.5758 46.928C75.4032 46.452 75.3168 45.9037 75.3168 45.283C75.3168 44.7883 75.3938 44.3263 75.5478 43.897C75.7065 43.4677 75.9305 43.0943 76.2198 42.777C76.5138 42.4597 76.8685 42.21 77.2838 42.028C77.7038 41.8413 78.1775 41.748 78.7048 41.748C79.1435 41.748 79.5495 41.8203 79.9228 41.965C80.2962 42.105 80.6182 42.3127 80.8888 42.588C81.1595 42.8633 81.3695 43.2017 81.5188 43.603C81.6728 43.9997 81.7498 44.4523 81.7498 44.961C81.7498 45.1943 81.7242 45.3507 81.6728 45.43C81.6215 45.5093 81.5282 45.549 81.3928 45.549H76.8078ZM92.5839 41.86L89.7139 49H88.3559L85.4859 41.86H86.7249C86.8415 41.86 86.9372 41.8903 87.0119 41.951C87.0912 42.007 87.1425 42.0747 87.1659 42.154L88.7479 46.312C88.8132 46.508 88.8715 46.7017 88.9229 46.893C88.9742 47.0843 89.0185 47.278 89.0559 47.474C89.0932 47.278 89.1375 47.0867 89.1889 46.9C89.2449 46.7087 89.3055 46.5127 89.3709 46.312L90.9809 42.154C91.0089 42.07 91.0602 42 91.1349 41.944C91.2095 41.888 91.3005 41.86 91.4079 41.86H92.5839ZM95.1803 41.86V49H93.6753V41.86H95.1803ZM95.4323 39.704C95.4323 39.8393 95.4043 39.9677 95.3483 40.089C95.297 40.2103 95.2246 40.3177 95.1313 40.411C95.038 40.4997 94.9283 40.572 94.8023 40.628C94.681 40.6793 94.5503 40.705 94.4103 40.705C94.275 40.705 94.1466 40.6793 94.0253 40.628C93.9086 40.572 93.806 40.4997 93.7173 40.411C93.6286 40.3177 93.5563 40.2103 93.5003 40.089C93.449 39.9677 93.4233 39.8393 93.4233 39.704C93.4233 39.564 93.449 39.4333 93.5003 39.312C93.5563 39.1907 93.6286 39.0857 93.7173 38.997C93.806 38.9037 93.9086 38.8313 94.0253 38.78C94.1466 38.724 94.275 38.696 94.4103 38.696C94.5503 38.696 94.681 38.724 94.8023 38.78C94.9283 38.8313 95.038 38.9037 95.1313 38.997C95.2246 39.0857 95.297 39.1907 95.3483 39.312C95.4043 39.4333 95.4323 39.564 95.4323 39.704ZM101.334 43.155C101.297 43.2203 101.255 43.267 101.208 43.295C101.162 43.323 101.103 43.337 101.033 43.337C100.954 43.337 100.868 43.3137 100.774 43.267C100.681 43.2157 100.571 43.1597 100.445 43.099C100.319 43.0383 100.17 42.9847 99.9973 42.938C99.8293 42.8867 99.631 42.861 99.4023 42.861C99.2156 42.861 99.0453 42.8843 98.8913 42.931C98.742 42.973 98.6136 43.036 98.5063 43.12C98.4036 43.1993 98.3243 43.295 98.2683 43.407C98.2123 43.5143 98.1843 43.631 98.1843 43.757C98.1843 43.925 98.2356 44.065 98.3383 44.177C98.441 44.289 98.5763 44.387 98.7443 44.471C98.9123 44.5503 99.1036 44.6227 99.3183 44.688C99.533 44.7533 99.7523 44.8233 99.9763 44.898C100.2 44.9727 100.42 45.059 100.634 45.157C100.849 45.255 101.04 45.3763 101.208 45.521C101.376 45.661 101.512 45.8337 101.614 46.039C101.717 46.2397 101.768 46.4847 101.768 46.774C101.768 47.11 101.708 47.4203 101.586 47.705C101.465 47.9897 101.288 48.237 101.054 48.447C100.821 48.657 100.529 48.8203 100.179 48.937C99.834 49.0537 99.4373 49.112 98.9893 49.112C98.742 49.112 98.5016 49.0887 98.2683 49.042C98.0396 49 97.8203 48.9417 97.6103 48.867C97.405 48.7877 97.2113 48.6943 97.0293 48.587C96.852 48.4797 96.6933 48.363 96.5533 48.237L96.9033 47.663C96.9453 47.593 96.9966 47.5393 97.0573 47.502C97.1226 47.46 97.202 47.439 97.2953 47.439C97.3933 47.439 97.489 47.4717 97.5823 47.537C97.6803 47.5977 97.7923 47.6653 97.9183 47.74C98.049 47.8147 98.2053 47.8847 98.3873 47.95C98.5693 48.0107 98.7956 48.041 99.0663 48.041C99.2903 48.041 99.484 48.0153 99.6473 47.964C99.8106 47.908 99.946 47.8333 100.053 47.74C100.161 47.6467 100.24 47.5417 100.291 47.425C100.343 47.3037 100.368 47.1753 100.368 47.04C100.368 46.858 100.317 46.7087 100.214 46.592C100.112 46.4753 99.974 46.375 99.8013 46.291C99.6333 46.207 99.4396 46.1323 99.2203 46.067C99.0056 46.0017 98.7863 45.9317 98.5623 45.857C98.3383 45.7823 98.1166 45.696 97.8973 45.598C97.6826 45.5 97.489 45.3763 97.3163 45.227C97.1483 45.073 97.013 44.8887 96.9103 44.674C96.8076 44.4547 96.7563 44.1887 96.7563 43.876C96.7563 43.5913 96.8123 43.3207 96.9243 43.064C97.041 42.8073 97.209 42.581 97.4283 42.385C97.6523 42.189 97.9253 42.035 98.2473 41.923C98.574 41.8063 98.9496 41.748 99.3743 41.748C99.855 41.748 100.291 41.825 100.683 41.979C101.075 42.133 101.404 42.343 101.67 42.609L101.334 43.155ZM104.751 41.86V49H103.246V41.86H104.751ZM105.003 39.704C105.003 39.8393 104.975 39.9677 104.919 40.089C104.867 40.2103 104.795 40.3177 104.702 40.411C104.608 40.4997 104.499 40.572 104.373 40.628C104.251 40.6793 104.121 40.705 103.981 40.705C103.845 40.705 103.717 40.6793 103.596 40.628C103.479 40.572 103.376 40.4997 103.288 40.411C103.199 40.3177 103.127 40.2103 103.071 40.089C103.019 39.9677 102.994 39.8393 102.994 39.704C102.994 39.564 103.019 39.4333 103.071 39.312C103.127 39.1907 103.199 39.0857 103.288 38.997C103.376 38.9037 103.479 38.8313 103.596 38.78C103.717 38.724 103.845 38.696 103.981 38.696C104.121 38.696 104.251 38.724 104.373 38.78C104.499 38.8313 104.608 38.9037 104.702 38.997C104.795 39.0857 104.867 39.1907 104.919 39.312C104.975 39.4333 105.003 39.564 105.003 39.704ZM108.931 49.112C108.338 49.112 107.881 48.9463 107.559 48.615C107.241 48.279 107.083 47.8077 107.083 47.201V43.043H106.299C106.215 43.043 106.142 43.0173 106.082 42.966C106.021 42.91 105.991 42.8283 105.991 42.721V42.112L107.146 41.944L107.475 39.879C107.498 39.7997 107.538 39.7367 107.594 39.69C107.65 39.6387 107.724 39.613 107.818 39.613H108.588V41.958H110.569V43.043H108.588V47.096C108.588 47.3527 108.651 47.5487 108.777 47.684C108.903 47.8193 109.071 47.887 109.281 47.887C109.397 47.887 109.498 47.873 109.582 47.845C109.666 47.8123 109.738 47.7797 109.799 47.747C109.859 47.7097 109.911 47.677 109.953 47.649C109.999 47.6163 110.044 47.6 110.086 47.6C110.17 47.6 110.237 47.6467 110.289 47.74L110.737 48.475C110.503 48.6803 110.228 48.839 109.911 48.951C109.593 49.0583 109.267 49.112 108.931 49.112ZM116.018 43.155C115.981 43.2203 115.939 43.267 115.892 43.295C115.845 43.323 115.787 43.337 115.717 43.337C115.638 43.337 115.551 43.3137 115.458 43.267C115.365 43.2157 115.255 43.1597 115.129 43.099C115.003 43.0383 114.854 42.9847 114.681 42.938C114.513 42.8867 114.315 42.861 114.086 42.861C113.899 42.861 113.729 42.8843 113.575 42.931C113.426 42.973 113.297 43.036 113.19 43.12C113.087 43.1993 113.008 43.295 112.952 43.407C112.896 43.5143 112.868 43.631 112.868 43.757C112.868 43.925 112.919 44.065 113.022 44.177C113.125 44.289 113.26 44.387 113.428 44.471C113.596 44.5503 113.787 44.6227 114.002 44.688C114.217 44.7533 114.436 44.8233 114.66 44.898C114.884 44.9727 115.103 45.059 115.318 45.157C115.533 45.255 115.724 45.3763 115.892 45.521C116.06 45.661 116.195 45.8337 116.298 46.039C116.401 46.2397 116.452 46.4847 116.452 46.774C116.452 47.11 116.391 47.4203 116.27 47.705C116.149 47.9897 115.971 48.237 115.738 48.447C115.505 48.657 115.213 48.8203 114.863 48.937C114.518 49.0537 114.121 49.112 113.673 49.112C113.426 49.112 113.185 49.0887 112.952 49.042C112.723 49 112.504 48.9417 112.294 48.867C112.089 48.7877 111.895 48.6943 111.713 48.587C111.536 48.4797 111.377 48.363 111.237 48.237L111.587 47.663C111.629 47.593 111.68 47.5393 111.741 47.502C111.806 47.46 111.886 47.439 111.979 47.439C112.077 47.439 112.173 47.4717 112.266 47.537C112.364 47.5977 112.476 47.6653 112.602 47.74C112.733 47.8147 112.889 47.8847 113.071 47.95C113.253 48.0107 113.479 48.041 113.75 48.041C113.974 48.041 114.168 48.0153 114.331 47.964C114.494 47.908 114.63 47.8333 114.737 47.74C114.844 47.6467 114.924 47.5417 114.975 47.425C115.026 47.3037 115.052 47.1753 115.052 47.04C115.052 46.858 115.001 46.7087 114.898 46.592C114.795 46.4753 114.658 46.375 114.485 46.291C114.317 46.207 114.123 46.1323 113.904 46.067C113.689 46.0017 113.47 45.9317 113.246 45.857C113.022 45.7823 112.8 45.696 112.581 45.598C112.366 45.5 112.173 45.3763 112 45.227C111.832 45.073 111.697 44.8887 111.594 44.674C111.491 44.4547 111.44 44.1887 111.44 43.876C111.44 43.5913 111.496 43.3207 111.608 43.064C111.725 42.8073 111.893 42.581 112.112 42.385C112.336 42.189 112.609 42.035 112.931 41.923C113.258 41.8063 113.633 41.748 114.058 41.748C114.539 41.748 114.975 41.825 115.367 41.979C115.759 42.133 116.088 42.343 116.354 42.609L116.018 43.155Z" fill="#393838"/>
<path d="M29.531 286.22L28.145 282.538C28.033 282.253 27.9187 281.892 27.802 281.453C27.7507 281.672 27.6947 281.875 27.634 282.062C27.5733 282.244 27.5173 282.405 27.466 282.545L26.08 286.22H29.531ZM32.632 290H31.365C31.2203 290 31.1037 289.965 31.015 289.895C30.9263 289.82 30.8587 289.729 30.812 289.622L29.972 287.396H25.632L24.792 289.622C24.7547 289.715 24.6893 289.802 24.596 289.881C24.5027 289.96 24.386 290 24.246 290H22.979L26.976 279.92H28.635L32.632 290ZM39.3843 282.86V290H38.4743C38.2736 290 38.1453 289.904 38.0893 289.713L37.9773 289.048C37.8279 289.207 37.6693 289.351 37.5013 289.482C37.3379 289.613 37.1629 289.725 36.9763 289.818C36.7896 289.911 36.5889 289.984 36.3743 290.035C36.1643 290.086 35.9379 290.112 35.6953 290.112C35.3033 290.112 34.9579 290.047 34.6593 289.916C34.3606 289.785 34.1086 289.601 33.9033 289.363C33.7026 289.125 33.5509 288.84 33.4483 288.509C33.3456 288.173 33.2943 287.804 33.2943 287.403V282.86H34.7993V287.403C34.7993 287.884 34.9089 288.257 35.1283 288.523C35.3523 288.789 35.6906 288.922 36.1433 288.922C36.4746 288.922 36.7826 288.847 37.0673 288.698C37.3566 288.544 37.6273 288.334 37.8793 288.068V282.86H39.3843ZM43.7599 286.367C44.2266 286.367 44.5766 286.248 44.8099 286.01C45.0433 285.772 45.1599 285.462 45.1599 285.079C45.1599 284.687 45.0433 284.377 44.8099 284.148C44.5766 283.919 44.2266 283.805 43.7599 283.805C43.2979 283.805 42.9479 283.919 42.7099 284.148C42.4766 284.377 42.3599 284.687 42.3599 285.079C42.3599 285.266 42.3903 285.438 42.4509 285.597C42.5116 285.756 42.6003 285.893 42.7169 286.01C42.8336 286.122 42.9783 286.211 43.1509 286.276C43.3283 286.337 43.5313 286.367 43.7599 286.367ZM45.8529 290.35C45.8529 290.191 45.8063 290.065 45.7129 289.972C45.6243 289.874 45.5029 289.799 45.3489 289.748C45.1949 289.692 45.0153 289.652 44.8099 289.629C44.6046 289.601 44.3853 289.582 44.1519 289.573C43.9233 289.559 43.6876 289.547 43.4449 289.538C43.2069 289.524 42.9759 289.501 42.7519 289.468C42.5279 289.585 42.3436 289.725 42.1989 289.888C42.0589 290.051 41.9889 290.24 41.9889 290.455C41.9889 290.595 42.0239 290.726 42.0939 290.847C42.1686 290.968 42.2806 291.073 42.4299 291.162C42.5839 291.251 42.7776 291.321 43.0109 291.372C43.2489 291.423 43.5336 291.449 43.8649 291.449C44.5276 291.449 45.0246 291.346 45.3559 291.141C45.6873 290.936 45.8529 290.672 45.8529 290.35ZM47.3649 283.119V283.679C47.3649 283.866 47.2529 283.98 47.0289 284.022L46.3149 284.141C46.4363 284.412 46.4969 284.713 46.4969 285.044C46.4969 285.394 46.4269 285.711 46.2869 285.996C46.1516 286.281 45.9626 286.523 45.7199 286.724C45.4773 286.925 45.1879 287.079 44.8519 287.186C44.5159 287.293 44.1519 287.347 43.7599 287.347C43.6106 287.347 43.4636 287.34 43.3189 287.326C43.1789 287.307 43.0413 287.284 42.9059 287.256C42.7706 287.335 42.6703 287.419 42.6049 287.508C42.5396 287.597 42.5069 287.688 42.5069 287.781C42.5069 287.935 42.5746 288.049 42.7099 288.124C42.8453 288.199 43.0226 288.252 43.2419 288.285C43.4659 288.318 43.7203 288.339 44.0049 288.348C44.2896 288.357 44.5789 288.374 44.8729 288.397C45.1669 288.42 45.4563 288.46 45.7409 288.516C46.0256 288.567 46.2776 288.656 46.4969 288.782C46.7209 288.903 46.9006 289.069 47.0359 289.279C47.1713 289.489 47.2389 289.762 47.2389 290.098C47.2389 290.406 47.1619 290.707 47.0079 291.001C46.8539 291.295 46.6299 291.556 46.3359 291.785C46.0466 292.014 45.6919 292.196 45.2719 292.331C44.8519 292.471 44.3736 292.541 43.8369 292.541C43.3049 292.541 42.8406 292.49 42.4439 292.387C42.0519 292.284 41.7229 292.144 41.4569 291.967C41.1956 291.794 40.9996 291.594 40.8689 291.365C40.7429 291.136 40.6799 290.898 40.6799 290.651C40.6799 290.315 40.7849 290.028 40.9949 289.79C41.2096 289.552 41.4989 289.365 41.8629 289.23C41.6669 289.137 41.5083 289.008 41.3869 288.845C41.2703 288.682 41.2119 288.467 41.2119 288.201C41.2119 287.991 41.2889 287.772 41.4429 287.543C41.5969 287.314 41.8279 287.121 42.1359 286.962C41.7813 286.766 41.5013 286.507 41.2959 286.185C41.0906 285.858 40.9879 285.478 40.9879 285.044C40.9879 284.689 41.0556 284.37 41.1909 284.085C41.3309 283.8 41.5246 283.558 41.7719 283.357C42.0193 283.156 42.3109 283.002 42.6469 282.895C42.9876 282.788 43.3586 282.734 43.7599 282.734C44.3759 282.734 44.9126 282.862 45.3699 283.119H47.3649ZM58.858 284.96C58.858 285.842 58.7624 286.605 58.571 287.249C58.3844 287.893 58.1254 288.427 57.794 288.852C57.4627 289.277 57.073 289.592 56.625 289.797C56.177 290.002 55.694 290.105 55.176 290.105C54.658 290.105 54.175 290.002 53.727 289.797C53.279 289.592 52.8894 289.277 52.558 288.852C52.2314 288.427 51.9747 287.893 51.788 287.249C51.6014 286.605 51.508 285.842 51.508 284.96C51.508 284.078 51.6014 283.315 51.788 282.671C51.9747 282.022 52.2314 281.488 52.558 281.068C52.8894 280.643 53.279 280.328 53.727 280.123C54.175 279.913 54.658 279.808 55.176 279.808C55.694 279.808 56.177 279.913 56.625 280.123C57.073 280.328 57.4627 280.643 57.794 281.068C58.1254 281.488 58.3844 282.022 58.571 282.671C58.7624 283.315 58.858 284.078 58.858 284.96ZM57.304 284.96C57.304 284.213 57.2434 283.593 57.122 283.098C57.0054 282.599 56.849 282.2 56.653 281.901C56.457 281.602 56.2307 281.39 55.974 281.264C55.7174 281.138 55.4514 281.075 55.176 281.075C54.896 281.075 54.6277 281.138 54.371 281.264C54.119 281.39 53.895 281.602 53.699 281.901C53.503 282.2 53.3467 282.599 53.23 283.098C53.1134 283.593 53.055 284.213 53.055 284.96C53.055 285.707 53.1134 286.33 53.23 286.829C53.3467 287.324 53.503 287.72 53.699 288.019C53.895 288.318 54.119 288.53 54.371 288.656C54.6277 288.782 54.896 288.845 55.176 288.845C55.4514 288.845 55.7174 288.782 55.974 288.656C56.2307 288.53 56.457 288.318 56.653 288.019C56.849 287.72 57.0054 287.324 57.122 286.829C57.2434 286.33 57.304 285.707 57.304 284.96ZM64.2911 286.276V282.594C64.2911 282.3 64.3121 281.978 64.3541 281.628L60.9661 286.276H64.2911ZM66.9931 286.276V287.144C66.9931 287.228 66.9651 287.3 66.9091 287.361C66.8578 287.422 66.7785 287.452 66.6711 287.452H65.6001V290H64.2911V287.452H59.9301C59.8228 287.452 59.7295 287.422 59.6501 287.361C59.5755 287.296 59.5265 287.216 59.5031 287.123L59.3491 286.353L64.1861 279.913H65.6001V286.276H66.9931Z" fill="#7A7A7A"/>
<path d="M141.531 286.22L140.145 282.538C140.033 282.253 139.919 281.892 139.802 281.453C139.751 281.672 139.695 281.875 139.634 282.062C139.573 282.244 139.517 282.405 139.466 282.545L138.08 286.22H141.531ZM144.632 290H143.365C143.22 290 143.104 289.965 143.015 289.895C142.926 289.82 142.859 289.729 142.812 289.622L141.972 287.396H137.632L136.792 289.622C136.755 289.715 136.689 289.802 136.596 289.881C136.503 289.96 136.386 290 136.246 290H134.979L138.976 279.92H140.635L144.632 290ZM151.384 282.86V290H150.474C150.274 290 150.145 289.904 150.089 289.713L149.977 289.048C149.828 289.207 149.669 289.351 149.501 289.482C149.338 289.613 149.163 289.725 148.976 289.818C148.79 289.911 148.589 289.984 148.374 290.035C148.164 290.086 147.938 290.112 147.695 290.112C147.303 290.112 146.958 290.047 146.659 289.916C146.361 289.785 146.109 289.601 145.903 289.363C145.703 289.125 145.551 288.84 145.448 288.509C145.346 288.173 145.294 287.804 145.294 287.403V282.86H146.799V287.403C146.799 287.884 146.909 288.257 147.128 288.523C147.352 288.789 147.691 288.922 148.143 288.922C148.475 288.922 148.783 288.847 149.067 288.698C149.357 288.544 149.627 288.334 149.879 288.068V282.86H151.384ZM155.76 286.367C156.227 286.367 156.577 286.248 156.81 286.01C157.043 285.772 157.16 285.462 157.16 285.079C157.16 284.687 157.043 284.377 156.81 284.148C156.577 283.919 156.227 283.805 155.76 283.805C155.298 283.805 154.948 283.919 154.71 284.148C154.477 284.377 154.36 284.687 154.36 285.079C154.36 285.266 154.39 285.438 154.451 285.597C154.512 285.756 154.6 285.893 154.717 286.01C154.834 286.122 154.978 286.211 155.151 286.276C155.328 286.337 155.531 286.367 155.76 286.367ZM157.853 290.35C157.853 290.191 157.806 290.065 157.713 289.972C157.624 289.874 157.503 289.799 157.349 289.748C157.195 289.692 157.015 289.652 156.81 289.629C156.605 289.601 156.385 289.582 156.152 289.573C155.923 289.559 155.688 289.547 155.445 289.538C155.207 289.524 154.976 289.501 154.752 289.468C154.528 289.585 154.344 289.725 154.199 289.888C154.059 290.051 153.989 290.24 153.989 290.455C153.989 290.595 154.024 290.726 154.094 290.847C154.169 290.968 154.281 291.073 154.43 291.162C154.584 291.251 154.778 291.321 155.011 291.372C155.249 291.423 155.534 291.449 155.865 291.449C156.528 291.449 157.025 291.346 157.356 291.141C157.687 290.936 157.853 290.672 157.853 290.35ZM159.365 283.119V283.679C159.365 283.866 159.253 283.98 159.029 284.022L158.315 284.141C158.436 284.412 158.497 284.713 158.497 285.044C158.497 285.394 158.427 285.711 158.287 285.996C158.152 286.281 157.963 286.523 157.72 286.724C157.477 286.925 157.188 287.079 156.852 287.186C156.516 287.293 156.152 287.347 155.76 287.347C155.611 287.347 155.464 287.34 155.319 287.326C155.179 287.307 155.041 287.284 154.906 287.256C154.771 287.335 154.67 287.419 154.605 287.508C154.54 287.597 154.507 287.688 154.507 287.781C154.507 287.935 154.575 288.049 154.71 288.124C154.845 288.199 155.023 288.252 155.242 288.285C155.466 288.318 155.72 288.339 156.005 288.348C156.29 288.357 156.579 288.374 156.873 288.397C157.167 288.42 157.456 288.46 157.741 288.516C158.026 288.567 158.278 288.656 158.497 288.782C158.721 288.903 158.901 289.069 159.036 289.279C159.171 289.489 159.239 289.762 159.239 290.098C159.239 290.406 159.162 290.707 159.008 291.001C158.854 291.295 158.63 291.556 158.336 291.785C158.047 292.014 157.692 292.196 157.272 292.331C156.852 292.471 156.374 292.541 155.837 292.541C155.305 292.541 154.841 292.49 154.444 292.387C154.052 292.284 153.723 292.144 153.457 291.967C153.196 291.794 153 291.594 152.869 291.365C152.743 291.136 152.68 290.898 152.68 290.651C152.68 290.315 152.785 290.028 152.995 289.79C153.21 289.552 153.499 289.365 153.863 289.23C153.667 289.137 153.508 289.008 153.387 288.845C153.27 288.682 153.212 288.467 153.212 288.201C153.212 287.991 153.289 287.772 153.443 287.543C153.597 287.314 153.828 287.121 154.136 286.962C153.781 286.766 153.501 286.507 153.296 286.185C153.091 285.858 152.988 285.478 152.988 285.044C152.988 284.689 153.056 284.37 153.191 284.085C153.331 283.8 153.525 283.558 153.772 283.357C154.019 283.156 154.311 283.002 154.647 282.895C154.988 282.788 155.359 282.734 155.76 282.734C156.376 282.734 156.913 282.862 157.37 283.119H159.365ZM170.858 284.96C170.858 285.842 170.762 286.605 170.571 287.249C170.384 287.893 170.125 288.427 169.794 288.852C169.463 289.277 169.073 289.592 168.625 289.797C168.177 290.002 167.694 290.105 167.176 290.105C166.658 290.105 166.175 290.002 165.727 289.797C165.279 289.592 164.889 289.277 164.558 288.852C164.231 288.427 163.975 287.893 163.788 287.249C163.601 286.605 163.508 285.842 163.508 284.96C163.508 284.078 163.601 283.315 163.788 282.671C163.975 282.022 164.231 281.488 164.558 281.068C164.889 280.643 165.279 280.328 165.727 280.123C166.175 279.913 166.658 279.808 167.176 279.808C167.694 279.808 168.177 279.913 168.625 280.123C169.073 280.328 169.463 280.643 169.794 281.068C170.125 281.488 170.384 282.022 170.571 282.671C170.762 283.315 170.858 284.078 170.858 284.96ZM169.304 284.96C169.304 284.213 169.243 283.593 169.122 283.098C169.005 282.599 168.849 282.2 168.653 281.901C168.457 281.602 168.231 281.39 167.974 281.264C167.717 281.138 167.451 281.075 167.176 281.075C166.896 281.075 166.628 281.138 166.371 281.264C166.119 281.39 165.895 281.602 165.699 281.901C165.503 282.2 165.347 282.599 165.23 283.098C165.113 283.593 165.055 284.213 165.055 284.96C165.055 285.707 165.113 286.33 165.23 286.829C165.347 287.324 165.503 287.72 165.699 288.019C165.895 288.318 166.119 288.53 166.371 288.656C166.628 288.782 166.896 288.845 167.176 288.845C167.451 288.845 167.717 288.782 167.974 288.656C168.231 288.53 168.457 288.318 168.653 288.019C168.849 287.72 169.005 287.324 169.122 286.829C169.243 286.33 169.304 285.707 169.304 284.96ZM173.939 283.644C174.182 283.593 174.413 283.555 174.632 283.532C174.856 283.509 175.071 283.497 175.276 283.497C175.803 283.497 176.268 283.576 176.669 283.735C177.075 283.889 177.413 284.104 177.684 284.379C177.959 284.654 178.165 284.979 178.3 285.352C178.44 285.721 178.51 286.122 178.51 286.556C178.51 287.093 178.417 287.58 178.23 288.019C178.043 288.458 177.784 288.833 177.453 289.146C177.122 289.454 176.73 289.692 176.277 289.86C175.829 290.028 175.344 290.112 174.821 290.112C174.513 290.112 174.219 290.082 173.939 290.021C173.664 289.96 173.405 289.879 173.162 289.776C172.919 289.669 172.695 289.547 172.49 289.412C172.285 289.272 172.1 289.127 171.937 288.978L172.399 288.334C172.497 288.194 172.628 288.124 172.791 288.124C172.894 288.124 173.006 288.161 173.127 288.236C173.248 288.311 173.388 288.392 173.547 288.481C173.71 288.565 173.902 288.644 174.121 288.719C174.34 288.794 174.602 288.831 174.905 288.831C175.236 288.831 175.533 288.777 175.794 288.67C176.055 288.563 176.275 288.413 176.452 288.222C176.634 288.026 176.772 287.793 176.865 287.522C176.958 287.251 177.005 286.955 177.005 286.633C177.005 286.339 176.961 286.075 176.872 285.842C176.788 285.609 176.66 285.41 176.487 285.247C176.319 285.084 176.107 284.96 175.85 284.876C175.593 284.787 175.297 284.743 174.961 284.743C174.714 284.743 174.459 284.764 174.198 284.806C173.941 284.848 173.68 284.913 173.414 285.002L172.476 284.736L173.302 279.92H178.181V280.571C178.181 280.786 178.113 280.961 177.978 281.096C177.843 281.231 177.616 281.299 177.299 281.299H174.345L173.939 283.644Z" fill="#7A7A7A"/>
<path d="M253.531 283.22L252.145 279.538C252.033 279.253 251.919 278.892 251.802 278.453C251.751 278.672 251.695 278.875 251.634 279.062C251.573 279.244 251.517 279.405 251.466 279.545L250.08 283.22H253.531ZM256.632 287H255.365C255.22 287 255.104 286.965 255.015 286.895C254.926 286.82 254.859 286.729 254.812 286.622L253.972 284.396H249.632L248.792 286.622C248.755 286.715 248.689 286.802 248.596 286.881C248.503 286.96 248.386 287 248.246 287H246.979L250.976 276.92H252.635L256.632 287ZM263.384 279.86V287H262.474C262.274 287 262.145 286.904 262.089 286.713L261.977 286.048C261.828 286.207 261.669 286.351 261.501 286.482C261.338 286.613 261.163 286.725 260.976 286.818C260.79 286.911 260.589 286.984 260.374 287.035C260.164 287.086 259.938 287.112 259.695 287.112C259.303 287.112 258.958 287.047 258.659 286.916C258.361 286.785 258.109 286.601 257.903 286.363C257.703 286.125 257.551 285.84 257.448 285.509C257.346 285.173 257.294 284.804 257.294 284.403V279.86H258.799V284.403C258.799 284.884 258.909 285.257 259.128 285.523C259.352 285.789 259.691 285.922 260.143 285.922C260.475 285.922 260.783 285.847 261.067 285.698C261.357 285.544 261.627 285.334 261.879 285.068V279.86H263.384ZM267.76 283.367C268.227 283.367 268.577 283.248 268.81 283.01C269.043 282.772 269.16 282.462 269.16 282.079C269.16 281.687 269.043 281.377 268.81 281.148C268.577 280.919 268.227 280.805 267.76 280.805C267.298 280.805 266.948 280.919 266.71 281.148C266.477 281.377 266.36 281.687 266.36 282.079C266.36 282.266 266.39 282.438 266.451 282.597C266.512 282.756 266.6 282.893 266.717 283.01C266.834 283.122 266.978 283.211 267.151 283.276C267.328 283.337 267.531 283.367 267.76 283.367ZM269.853 287.35C269.853 287.191 269.806 287.065 269.713 286.972C269.624 286.874 269.503 286.799 269.349 286.748C269.195 286.692 269.015 286.652 268.81 286.629C268.605 286.601 268.385 286.582 268.152 286.573C267.923 286.559 267.688 286.547 267.445 286.538C267.207 286.524 266.976 286.501 266.752 286.468C266.528 286.585 266.344 286.725 266.199 286.888C266.059 287.051 265.989 287.24 265.989 287.455C265.989 287.595 266.024 287.726 266.094 287.847C266.169 287.968 266.281 288.073 266.43 288.162C266.584 288.251 266.778 288.321 267.011 288.372C267.249 288.423 267.534 288.449 267.865 288.449C268.528 288.449 269.025 288.346 269.356 288.141C269.687 287.936 269.853 287.672 269.853 287.35ZM271.365 280.119V280.679C271.365 280.866 271.253 280.98 271.029 281.022L270.315 281.141C270.436 281.412 270.497 281.713 270.497 282.044C270.497 282.394 270.427 282.711 270.287 282.996C270.152 283.281 269.963 283.523 269.72 283.724C269.477 283.925 269.188 284.079 268.852 284.186C268.516 284.293 268.152 284.347 267.76 284.347C267.611 284.347 267.464 284.34 267.319 284.326C267.179 284.307 267.041 284.284 266.906 284.256C266.771 284.335 266.67 284.419 266.605 284.508C266.54 284.597 266.507 284.688 266.507 284.781C266.507 284.935 266.575 285.049 266.71 285.124C266.845 285.199 267.023 285.252 267.242 285.285C267.466 285.318 267.72 285.339 268.005 285.348C268.29 285.357 268.579 285.374 268.873 285.397C269.167 285.42 269.456 285.46 269.741 285.516C270.026 285.567 270.278 285.656 270.497 285.782C270.721 285.903 270.901 286.069 271.036 286.279C271.171 286.489 271.239 286.762 271.239 287.098C271.239 287.406 271.162 287.707 271.008 288.001C270.854 288.295 270.63 288.556 270.336 288.785C270.047 289.014 269.692 289.196 269.272 289.331C268.852 289.471 268.374 289.541 267.837 289.541C267.305 289.541 266.841 289.49 266.444 289.387C266.052 289.284 265.723 289.144 265.457 288.967C265.196 288.794 265 288.594 264.869 288.365C264.743 288.136 264.68 287.898 264.68 287.651C264.68 287.315 264.785 287.028 264.995 286.79C265.21 286.552 265.499 286.365 265.863 286.23C265.667 286.137 265.508 286.008 265.387 285.845C265.27 285.682 265.212 285.467 265.212 285.201C265.212 284.991 265.289 284.772 265.443 284.543C265.597 284.314 265.828 284.121 266.136 283.962C265.781 283.766 265.501 283.507 265.296 283.185C265.091 282.858 264.988 282.478 264.988 282.044C264.988 281.689 265.056 281.37 265.191 281.085C265.331 280.8 265.525 280.558 265.772 280.357C266.019 280.156 266.311 280.002 266.647 279.895C266.988 279.788 267.359 279.734 267.76 279.734C268.376 279.734 268.913 279.862 269.37 280.119H271.365ZM282.858 281.96C282.858 282.842 282.762 283.605 282.571 284.249C282.384 284.893 282.125 285.427 281.794 285.852C281.463 286.277 281.073 286.592 280.625 286.797C280.177 287.002 279.694 287.105 279.176 287.105C278.658 287.105 278.175 287.002 277.727 286.797C277.279 286.592 276.889 286.277 276.558 285.852C276.231 285.427 275.975 284.893 275.788 284.249C275.601 283.605 275.508 282.842 275.508 281.96C275.508 281.078 275.601 280.315 275.788 279.671C275.975 279.022 276.231 278.488 276.558 278.068C276.889 277.643 277.279 277.328 277.727 277.123C278.175 276.913 278.658 276.808 279.176 276.808C279.694 276.808 280.177 276.913 280.625 277.123C281.073 277.328 281.463 277.643 281.794 278.068C282.125 278.488 282.384 279.022 282.571 279.671C282.762 280.315 282.858 281.078 282.858 281.96ZM281.304 281.96C281.304 281.213 281.243 280.593 281.122 280.098C281.005 279.599 280.849 279.2 280.653 278.901C280.457 278.602 280.231 278.39 279.974 278.264C279.717 278.138 279.451 278.075 279.176 278.075C278.896 278.075 278.628 278.138 278.371 278.264C278.119 278.39 277.895 278.602 277.699 278.901C277.503 279.2 277.347 279.599 277.23 280.098C277.113 280.593 277.055 281.213 277.055 281.96C277.055 282.707 277.113 283.33 277.23 283.829C277.347 284.324 277.503 284.72 277.699 285.019C277.895 285.318 278.119 285.53 278.371 285.656C278.628 285.782 278.896 285.845 279.176 285.845C279.451 285.845 279.717 285.782 279.974 285.656C280.231 285.53 280.457 285.318 280.653 285.019C280.849 284.72 281.005 284.324 281.122 283.829C281.243 283.33 281.304 282.707 281.304 281.96ZM287.29 285.866C287.593 285.866 287.871 285.817 288.123 285.719C288.375 285.616 288.59 285.476 288.767 285.299C288.949 285.122 289.089 284.912 289.187 284.669C289.285 284.426 289.334 284.163 289.334 283.878C289.334 283.57 289.285 283.295 289.187 283.052C289.094 282.805 288.958 282.597 288.781 282.429C288.608 282.261 288.398 282.133 288.151 282.044C287.908 281.951 287.64 281.904 287.346 281.904C287.043 281.904 286.767 281.955 286.52 282.058C286.277 282.161 286.07 282.301 285.897 282.478C285.724 282.655 285.591 282.863 285.498 283.101C285.405 283.339 285.358 283.591 285.358 283.857C285.358 284.156 285.4 284.429 285.484 284.676C285.568 284.923 285.692 285.136 285.855 285.313C286.018 285.486 286.219 285.621 286.457 285.719C286.7 285.817 286.977 285.866 287.29 285.866ZM286.737 280.63C286.662 280.723 286.59 280.812 286.52 280.896C286.455 280.98 286.389 281.064 286.324 281.148C286.539 281.027 286.774 280.931 287.031 280.861C287.288 280.791 287.563 280.756 287.857 280.756C288.249 280.756 288.625 280.821 288.984 280.952C289.343 281.078 289.658 281.269 289.929 281.526C290.204 281.778 290.424 282.093 290.587 282.471C290.75 282.844 290.832 283.276 290.832 283.766C290.832 284.233 290.746 284.669 290.573 285.075C290.405 285.481 290.167 285.836 289.859 286.139C289.551 286.438 289.18 286.676 288.746 286.853C288.317 287.026 287.841 287.112 287.318 287.112C286.795 287.112 286.324 287.028 285.904 286.86C285.484 286.692 285.125 286.456 284.826 286.153C284.532 285.845 284.306 285.476 284.147 285.047C283.988 284.618 283.909 284.139 283.909 283.612C283.909 283.155 284.007 282.676 284.203 282.177C284.399 281.678 284.702 281.153 285.113 280.602L287.591 277.277C287.666 277.179 287.773 277.095 287.913 277.025C288.058 276.955 288.219 276.92 288.396 276.92H289.726L286.737 280.63Z" fill="#7A7A7A"/>
<path d="M365.531 280.22L364.145 276.538C364.033 276.253 363.919 275.892 363.802 275.453C363.751 275.672 363.695 275.875 363.634 276.062C363.573 276.244 363.517 276.405 363.466 276.545L362.08 280.22H365.531ZM368.632 284H367.365C367.22 284 367.104 283.965 367.015 283.895C366.926 283.82 366.859 283.729 366.812 283.622L365.972 281.396H361.632L360.792 283.622C360.755 283.715 360.689 283.802 360.596 283.881C360.503 283.96 360.386 284 360.246 284H358.979L362.976 273.92H364.635L368.632 284ZM375.384 276.86V284H374.474C374.274 284 374.145 283.904 374.089 283.713L373.977 283.048C373.828 283.207 373.669 283.351 373.501 283.482C373.338 283.613 373.163 283.725 372.976 283.818C372.79 283.911 372.589 283.984 372.374 284.035C372.164 284.086 371.938 284.112 371.695 284.112C371.303 284.112 370.958 284.047 370.659 283.916C370.361 283.785 370.109 283.601 369.903 283.363C369.703 283.125 369.551 282.84 369.448 282.509C369.346 282.173 369.294 281.804 369.294 281.403V276.86H370.799V281.403C370.799 281.884 370.909 282.257 371.128 282.523C371.352 282.789 371.691 282.922 372.143 282.922C372.475 282.922 372.783 282.847 373.067 282.698C373.357 282.544 373.627 282.334 373.879 282.068V276.86H375.384ZM379.76 280.367C380.227 280.367 380.577 280.248 380.81 280.01C381.043 279.772 381.16 279.462 381.16 279.079C381.16 278.687 381.043 278.377 380.81 278.148C380.577 277.919 380.227 277.805 379.76 277.805C379.298 277.805 378.948 277.919 378.71 278.148C378.477 278.377 378.36 278.687 378.36 279.079C378.36 279.266 378.39 279.438 378.451 279.597C378.512 279.756 378.6 279.893 378.717 280.01C378.834 280.122 378.978 280.211 379.151 280.276C379.328 280.337 379.531 280.367 379.76 280.367ZM381.853 284.35C381.853 284.191 381.806 284.065 381.713 283.972C381.624 283.874 381.503 283.799 381.349 283.748C381.195 283.692 381.015 283.652 380.81 283.629C380.605 283.601 380.385 283.582 380.152 283.573C379.923 283.559 379.688 283.547 379.445 283.538C379.207 283.524 378.976 283.501 378.752 283.468C378.528 283.585 378.344 283.725 378.199 283.888C378.059 284.051 377.989 284.24 377.989 284.455C377.989 284.595 378.024 284.726 378.094 284.847C378.169 284.968 378.281 285.073 378.43 285.162C378.584 285.251 378.778 285.321 379.011 285.372C379.249 285.423 379.534 285.449 379.865 285.449C380.528 285.449 381.025 285.346 381.356 285.141C381.687 284.936 381.853 284.672 381.853 284.35ZM383.365 277.119V277.679C383.365 277.866 383.253 277.98 383.029 278.022L382.315 278.141C382.436 278.412 382.497 278.713 382.497 279.044C382.497 279.394 382.427 279.711 382.287 279.996C382.152 280.281 381.963 280.523 381.72 280.724C381.477 280.925 381.188 281.079 380.852 281.186C380.516 281.293 380.152 281.347 379.76 281.347C379.611 281.347 379.464 281.34 379.319 281.326C379.179 281.307 379.041 281.284 378.906 281.256C378.771 281.335 378.67 281.419 378.605 281.508C378.54 281.597 378.507 281.688 378.507 281.781C378.507 281.935 378.575 282.049 378.71 282.124C378.845 282.199 379.023 282.252 379.242 282.285C379.466 282.318 379.72 282.339 380.005 282.348C380.29 282.357 380.579 282.374 380.873 282.397C381.167 282.42 381.456 282.46 381.741 282.516C382.026 282.567 382.278 282.656 382.497 282.782C382.721 282.903 382.901 283.069 383.036 283.279C383.171 283.489 383.239 283.762 383.239 284.098C383.239 284.406 383.162 284.707 383.008 285.001C382.854 285.295 382.63 285.556 382.336 285.785C382.047 286.014 381.692 286.196 381.272 286.331C380.852 286.471 380.374 286.541 379.837 286.541C379.305 286.541 378.841 286.49 378.444 286.387C378.052 286.284 377.723 286.144 377.457 285.967C377.196 285.794 377 285.594 376.869 285.365C376.743 285.136 376.68 284.898 376.68 284.651C376.68 284.315 376.785 284.028 376.995 283.79C377.21 283.552 377.499 283.365 377.863 283.23C377.667 283.137 377.508 283.008 377.387 282.845C377.27 282.682 377.212 282.467 377.212 282.201C377.212 281.991 377.289 281.772 377.443 281.543C377.597 281.314 377.828 281.121 378.136 280.962C377.781 280.766 377.501 280.507 377.296 280.185C377.091 279.858 376.988 279.478 376.988 279.044C376.988 278.689 377.056 278.37 377.191 278.085C377.331 277.8 377.525 277.558 377.772 277.357C378.019 277.156 378.311 277.002 378.647 276.895C378.988 276.788 379.359 276.734 379.76 276.734C380.376 276.734 380.913 276.862 381.37 277.119H383.365ZM394.858 278.96C394.858 279.842 394.762 280.605 394.571 281.249C394.384 281.893 394.125 282.427 393.794 282.852C393.463 283.277 393.073 283.592 392.625 283.797C392.177 284.002 391.694 284.105 391.176 284.105C390.658 284.105 390.175 284.002 389.727 283.797C389.279 283.592 388.889 283.277 388.558 282.852C388.231 282.427 387.975 281.893 387.788 281.249C387.601 280.605 387.508 279.842 387.508 278.96C387.508 278.078 387.601 277.315 387.788 276.671C387.975 276.022 388.231 275.488 388.558 275.068C388.889 274.643 389.279 274.328 389.727 274.123C390.175 273.913 390.658 273.808 391.176 273.808C391.694 273.808 392.177 273.913 392.625 274.123C393.073 274.328 393.463 274.643 393.794 275.068C394.125 275.488 394.384 276.022 394.571 276.671C394.762 277.315 394.858 278.078 394.858 278.96ZM393.304 278.96C393.304 278.213 393.243 277.593 393.122 277.098C393.005 276.599 392.849 276.2 392.653 275.901C392.457 275.602 392.231 275.39 391.974 275.264C391.717 275.138 391.451 275.075 391.176 275.075C390.896 275.075 390.628 275.138 390.371 275.264C390.119 275.39 389.895 275.602 389.699 275.901C389.503 276.2 389.347 276.599 389.23 277.098C389.113 277.593 389.055 278.213 389.055 278.96C389.055 279.707 389.113 280.33 389.23 280.829C389.347 281.324 389.503 281.72 389.699 282.019C389.895 282.318 390.119 282.53 390.371 282.656C390.628 282.782 390.896 282.845 391.176 282.845C391.451 282.845 391.717 282.782 391.974 282.656C392.231 282.53 392.457 282.318 392.653 282.019C392.849 281.72 393.005 281.324 393.122 280.829C393.243 280.33 393.304 279.707 393.304 278.96ZM402.853 273.92V274.585C402.853 274.781 402.832 274.94 402.79 275.061C402.748 275.182 402.706 275.285 402.664 275.369L398.681 283.475C398.611 283.624 398.511 283.75 398.38 283.853C398.254 283.951 398.086 284 397.876 284H396.791L400.851 276.027C400.926 275.882 401 275.752 401.075 275.635C401.15 275.518 401.234 275.406 401.327 275.299H396.294C396.201 275.299 396.119 275.264 396.049 275.194C395.979 275.119 395.944 275.035 395.944 274.942V273.92H402.853Z" fill="#7A7A7A"/>
<path d="M477.531 277.22L476.145 273.538C476.033 273.253 475.919 272.892 475.802 272.453C475.751 272.672 475.695 272.875 475.634 273.062C475.573 273.244 475.517 273.405 475.466 273.545L474.08 277.22H477.531ZM480.632 281H479.365C479.22 281 479.104 280.965 479.015 280.895C478.926 280.82 478.859 280.729 478.812 280.622L477.972 278.396H473.632L472.792 280.622C472.755 280.715 472.689 280.802 472.596 280.881C472.503 280.96 472.386 281 472.246 281H470.979L474.976 270.92H476.635L480.632 281ZM487.384 273.86V281H486.474C486.274 281 486.145 280.904 486.089 280.713L485.977 280.048C485.828 280.207 485.669 280.351 485.501 280.482C485.338 280.613 485.163 280.725 484.976 280.818C484.79 280.911 484.589 280.984 484.374 281.035C484.164 281.086 483.938 281.112 483.695 281.112C483.303 281.112 482.958 281.047 482.659 280.916C482.361 280.785 482.109 280.601 481.903 280.363C481.703 280.125 481.551 279.84 481.448 279.509C481.346 279.173 481.294 278.804 481.294 278.403V273.86H482.799V278.403C482.799 278.884 482.909 279.257 483.128 279.523C483.352 279.789 483.691 279.922 484.143 279.922C484.475 279.922 484.783 279.847 485.067 279.698C485.357 279.544 485.627 279.334 485.879 279.068V273.86H487.384ZM491.76 277.367C492.227 277.367 492.577 277.248 492.81 277.01C493.043 276.772 493.16 276.462 493.16 276.079C493.16 275.687 493.043 275.377 492.81 275.148C492.577 274.919 492.227 274.805 491.76 274.805C491.298 274.805 490.948 274.919 490.71 275.148C490.477 275.377 490.36 275.687 490.36 276.079C490.36 276.266 490.39 276.438 490.451 276.597C490.512 276.756 490.6 276.893 490.717 277.01C490.834 277.122 490.978 277.211 491.151 277.276C491.328 277.337 491.531 277.367 491.76 277.367ZM493.853 281.35C493.853 281.191 493.806 281.065 493.713 280.972C493.624 280.874 493.503 280.799 493.349 280.748C493.195 280.692 493.015 280.652 492.81 280.629C492.605 280.601 492.385 280.582 492.152 280.573C491.923 280.559 491.688 280.547 491.445 280.538C491.207 280.524 490.976 280.501 490.752 280.468C490.528 280.585 490.344 280.725 490.199 280.888C490.059 281.051 489.989 281.24 489.989 281.455C489.989 281.595 490.024 281.726 490.094 281.847C490.169 281.968 490.281 282.073 490.43 282.162C490.584 282.251 490.778 282.321 491.011 282.372C491.249 282.423 491.534 282.449 491.865 282.449C492.528 282.449 493.025 282.346 493.356 282.141C493.687 281.936 493.853 281.672 493.853 281.35ZM495.365 274.119V274.679C495.365 274.866 495.253 274.98 495.029 275.022L494.315 275.141C494.436 275.412 494.497 275.713 494.497 276.044C494.497 276.394 494.427 276.711 494.287 276.996C494.152 277.281 493.963 277.523 493.72 277.724C493.477 277.925 493.188 278.079 492.852 278.186C492.516 278.293 492.152 278.347 491.76 278.347C491.611 278.347 491.464 278.34 491.319 278.326C491.179 278.307 491.041 278.284 490.906 278.256C490.771 278.335 490.67 278.419 490.605 278.508C490.54 278.597 490.507 278.688 490.507 278.781C490.507 278.935 490.575 279.049 490.71 279.124C490.845 279.199 491.023 279.252 491.242 279.285C491.466 279.318 491.72 279.339 492.005 279.348C492.29 279.357 492.579 279.374 492.873 279.397C493.167 279.42 493.456 279.46 493.741 279.516C494.026 279.567 494.278 279.656 494.497 279.782C494.721 279.903 494.901 280.069 495.036 280.279C495.171 280.489 495.239 280.762 495.239 281.098C495.239 281.406 495.162 281.707 495.008 282.001C494.854 282.295 494.63 282.556 494.336 282.785C494.047 283.014 493.692 283.196 493.272 283.331C492.852 283.471 492.374 283.541 491.837 283.541C491.305 283.541 490.841 283.49 490.444 283.387C490.052 283.284 489.723 283.144 489.457 282.967C489.196 282.794 489 282.594 488.869 282.365C488.743 282.136 488.68 281.898 488.68 281.651C488.68 281.315 488.785 281.028 488.995 280.79C489.21 280.552 489.499 280.365 489.863 280.23C489.667 280.137 489.508 280.008 489.387 279.845C489.27 279.682 489.212 279.467 489.212 279.201C489.212 278.991 489.289 278.772 489.443 278.543C489.597 278.314 489.828 278.121 490.136 277.962C489.781 277.766 489.501 277.507 489.296 277.185C489.091 276.858 488.988 276.478 488.988 276.044C488.988 275.689 489.056 275.37 489.191 275.085C489.331 274.8 489.525 274.558 489.772 274.357C490.019 274.156 490.311 274.002 490.647 273.895C490.988 273.788 491.359 273.734 491.76 273.734C492.376 273.734 492.913 273.862 493.37 274.119H495.365ZM506.858 275.96C506.858 276.842 506.762 277.605 506.571 278.249C506.384 278.893 506.125 279.427 505.794 279.852C505.463 280.277 505.073 280.592 504.625 280.797C504.177 281.002 503.694 281.105 503.176 281.105C502.658 281.105 502.175 281.002 501.727 280.797C501.279 280.592 500.889 280.277 500.558 279.852C500.231 279.427 499.975 278.893 499.788 278.249C499.601 277.605 499.508 276.842 499.508 275.96C499.508 275.078 499.601 274.315 499.788 273.671C499.975 273.022 500.231 272.488 500.558 272.068C500.889 271.643 501.279 271.328 501.727 271.123C502.175 270.913 502.658 270.808 503.176 270.808C503.694 270.808 504.177 270.913 504.625 271.123C505.073 271.328 505.463 271.643 505.794 272.068C506.125 272.488 506.384 273.022 506.571 273.671C506.762 274.315 506.858 275.078 506.858 275.96ZM505.304 275.96C505.304 275.213 505.243 274.593 505.122 274.098C505.005 273.599 504.849 273.2 504.653 272.901C504.457 272.602 504.231 272.39 503.974 272.264C503.717 272.138 503.451 272.075 503.176 272.075C502.896 272.075 502.628 272.138 502.371 272.264C502.119 272.39 501.895 272.602 501.699 272.901C501.503 273.2 501.347 273.599 501.23 274.098C501.113 274.593 501.055 275.213 501.055 275.96C501.055 276.707 501.113 277.33 501.23 277.829C501.347 278.324 501.503 278.72 501.699 279.019C501.895 279.318 502.119 279.53 502.371 279.656C502.628 279.782 502.896 279.845 503.176 279.845C503.451 279.845 503.717 279.782 503.974 279.656C504.231 279.53 504.457 279.318 504.653 279.019C504.849 278.72 505.005 278.324 505.122 277.829C505.243 277.33 505.304 276.707 505.304 275.96ZM511.304 279.922C511.607 279.922 511.878 279.88 512.116 279.796C512.354 279.707 512.552 279.586 512.711 279.432C512.874 279.273 512.998 279.087 513.082 278.872C513.166 278.657 513.208 278.424 513.208 278.172C513.208 277.864 513.159 277.598 513.061 277.374C512.968 277.15 512.835 276.966 512.662 276.821C512.494 276.672 512.293 276.562 512.06 276.492C511.827 276.417 511.575 276.38 511.304 276.38C511.033 276.38 510.781 276.417 510.548 276.492C510.315 276.562 510.112 276.672 509.939 276.821C509.771 276.966 509.638 277.15 509.54 277.374C509.447 277.598 509.4 277.864 509.4 278.172C509.4 278.424 509.442 278.657 509.526 278.872C509.61 279.087 509.731 279.273 509.89 279.432C510.053 279.586 510.254 279.707 510.492 279.796C510.73 279.88 511.001 279.922 511.304 279.922ZM511.304 271.963C511.029 271.963 510.786 272.005 510.576 272.089C510.371 272.173 510.2 272.285 510.065 272.425C509.93 272.565 509.827 272.731 509.757 272.922C509.692 273.109 509.659 273.307 509.659 273.517C509.659 273.727 509.687 273.932 509.743 274.133C509.804 274.334 509.897 274.513 510.023 274.672C510.154 274.826 510.324 274.95 510.534 275.043C510.744 275.136 511.001 275.183 511.304 275.183C511.607 275.183 511.864 275.136 512.074 275.043C512.284 274.95 512.452 274.826 512.578 274.672C512.709 274.513 512.802 274.334 512.858 274.133C512.919 273.932 512.949 273.727 512.949 273.517C512.949 273.307 512.914 273.109 512.844 272.922C512.779 272.731 512.676 272.565 512.536 272.425C512.401 272.285 512.23 272.173 512.025 272.089C511.82 272.005 511.579 271.963 511.304 271.963ZM512.893 275.743C513.514 275.934 513.978 276.238 514.286 276.653C514.599 277.068 514.755 277.584 514.755 278.2C514.755 278.643 514.671 279.045 514.503 279.404C514.335 279.763 514.099 280.069 513.796 280.321C513.493 280.573 513.129 280.769 512.704 280.909C512.284 281.044 511.817 281.112 511.304 281.112C510.791 281.112 510.322 281.044 509.897 280.909C509.477 280.769 509.115 280.573 508.812 280.321C508.509 280.069 508.273 279.763 508.105 279.404C507.937 279.045 507.853 278.643 507.853 278.2C507.853 277.584 508.007 277.068 508.315 276.653C508.628 276.238 509.094 275.934 509.715 275.743C509.211 275.542 508.831 275.251 508.574 274.868C508.322 274.485 508.196 274.026 508.196 273.489C508.196 273.111 508.271 272.759 508.42 272.432C508.569 272.105 508.779 271.823 509.05 271.585C509.325 271.342 509.654 271.153 510.037 271.018C510.42 270.878 510.842 270.808 511.304 270.808C511.766 270.808 512.186 270.878 512.564 271.018C512.947 271.153 513.273 271.342 513.544 271.585C513.819 271.823 514.032 272.105 514.181 272.432C514.335 272.759 514.412 273.111 514.412 273.489C514.412 274.026 514.284 274.485 514.027 274.868C513.775 275.251 513.397 275.542 512.893 275.743Z" fill="#7A7A7A"/>
<path d="M589.531 274.22L588.145 270.538C588.033 270.253 587.919 269.892 587.802 269.453C587.751 269.672 587.695 269.875 587.634 270.062C587.573 270.244 587.517 270.405 587.466 270.545L586.08 274.22H589.531ZM592.632 278H591.365C591.22 278 591.104 277.965 591.015 277.895C590.926 277.82 590.859 277.729 590.812 277.622L589.972 275.396H585.632L584.792 277.622C584.755 277.715 584.689 277.802 584.596 277.881C584.503 277.96 584.386 278 584.246 278H582.979L586.976 267.92H588.635L592.632 278ZM599.384 270.86V278H598.474C598.274 278 598.145 277.904 598.089 277.713L597.977 277.048C597.828 277.207 597.669 277.351 597.501 277.482C597.338 277.613 597.163 277.725 596.976 277.818C596.79 277.911 596.589 277.984 596.374 278.035C596.164 278.086 595.938 278.112 595.695 278.112C595.303 278.112 594.958 278.047 594.659 277.916C594.361 277.785 594.109 277.601 593.903 277.363C593.703 277.125 593.551 276.84 593.448 276.509C593.346 276.173 593.294 275.804 593.294 275.403V270.86H594.799V275.403C594.799 275.884 594.909 276.257 595.128 276.523C595.352 276.789 595.691 276.922 596.143 276.922C596.475 276.922 596.783 276.847 597.067 276.698C597.357 276.544 597.627 276.334 597.879 276.068V270.86H599.384ZM603.76 274.367C604.227 274.367 604.577 274.248 604.81 274.01C605.043 273.772 605.16 273.462 605.16 273.079C605.16 272.687 605.043 272.377 604.81 272.148C604.577 271.919 604.227 271.805 603.76 271.805C603.298 271.805 602.948 271.919 602.71 272.148C602.477 272.377 602.36 272.687 602.36 273.079C602.36 273.266 602.39 273.438 602.451 273.597C602.512 273.756 602.6 273.893 602.717 274.01C602.834 274.122 602.978 274.211 603.151 274.276C603.328 274.337 603.531 274.367 603.76 274.367ZM605.853 278.35C605.853 278.191 605.806 278.065 605.713 277.972C605.624 277.874 605.503 277.799 605.349 277.748C605.195 277.692 605.015 277.652 604.81 277.629C604.605 277.601 604.385 277.582 604.152 277.573C603.923 277.559 603.688 277.547 603.445 277.538C603.207 277.524 602.976 277.501 602.752 277.468C602.528 277.585 602.344 277.725 602.199 277.888C602.059 278.051 601.989 278.24 601.989 278.455C601.989 278.595 602.024 278.726 602.094 278.847C602.169 278.968 602.281 279.073 602.43 279.162C602.584 279.251 602.778 279.321 603.011 279.372C603.249 279.423 603.534 279.449 603.865 279.449C604.528 279.449 605.025 279.346 605.356 279.141C605.687 278.936 605.853 278.672 605.853 278.35ZM607.365 271.119V271.679C607.365 271.866 607.253 271.98 607.029 272.022L606.315 272.141C606.436 272.412 606.497 272.713 606.497 273.044C606.497 273.394 606.427 273.711 606.287 273.996C606.152 274.281 605.963 274.523 605.72 274.724C605.477 274.925 605.188 275.079 604.852 275.186C604.516 275.293 604.152 275.347 603.76 275.347C603.611 275.347 603.464 275.34 603.319 275.326C603.179 275.307 603.041 275.284 602.906 275.256C602.771 275.335 602.67 275.419 602.605 275.508C602.54 275.597 602.507 275.688 602.507 275.781C602.507 275.935 602.575 276.049 602.71 276.124C602.845 276.199 603.023 276.252 603.242 276.285C603.466 276.318 603.72 276.339 604.005 276.348C604.29 276.357 604.579 276.374 604.873 276.397C605.167 276.42 605.456 276.46 605.741 276.516C606.026 276.567 606.278 276.656 606.497 276.782C606.721 276.903 606.901 277.069 607.036 277.279C607.171 277.489 607.239 277.762 607.239 278.098C607.239 278.406 607.162 278.707 607.008 279.001C606.854 279.295 606.63 279.556 606.336 279.785C606.047 280.014 605.692 280.196 605.272 280.331C604.852 280.471 604.374 280.541 603.837 280.541C603.305 280.541 602.841 280.49 602.444 280.387C602.052 280.284 601.723 280.144 601.457 279.967C601.196 279.794 601 279.594 600.869 279.365C600.743 279.136 600.68 278.898 600.68 278.651C600.68 278.315 600.785 278.028 600.995 277.79C601.21 277.552 601.499 277.365 601.863 277.23C601.667 277.137 601.508 277.008 601.387 276.845C601.27 276.682 601.212 276.467 601.212 276.201C601.212 275.991 601.289 275.772 601.443 275.543C601.597 275.314 601.828 275.121 602.136 274.962C601.781 274.766 601.501 274.507 601.296 274.185C601.091 273.858 600.988 273.478 600.988 273.044C600.988 272.689 601.056 272.37 601.191 272.085C601.331 271.8 601.525 271.558 601.772 271.357C602.019 271.156 602.311 271.002 602.647 270.895C602.988 270.788 603.359 270.734 603.76 270.734C604.376 270.734 604.913 270.862 605.37 271.119H607.365ZM618.858 272.96C618.858 273.842 618.762 274.605 618.571 275.249C618.384 275.893 618.125 276.427 617.794 276.852C617.463 277.277 617.073 277.592 616.625 277.797C616.177 278.002 615.694 278.105 615.176 278.105C614.658 278.105 614.175 278.002 613.727 277.797C613.279 277.592 612.889 277.277 612.558 276.852C612.231 276.427 611.975 275.893 611.788 275.249C611.601 274.605 611.508 273.842 611.508 272.96C611.508 272.078 611.601 271.315 611.788 270.671C611.975 270.022 612.231 269.488 612.558 269.068C612.889 268.643 613.279 268.328 613.727 268.123C614.175 267.913 614.658 267.808 615.176 267.808C615.694 267.808 616.177 267.913 616.625 268.123C617.073 268.328 617.463 268.643 617.794 269.068C618.125 269.488 618.384 270.022 618.571 270.671C618.762 271.315 618.858 272.078 618.858 272.96ZM617.304 272.96C617.304 272.213 617.243 271.593 617.122 271.098C617.005 270.599 616.849 270.2 616.653 269.901C616.457 269.602 616.231 269.39 615.974 269.264C615.717 269.138 615.451 269.075 615.176 269.075C614.896 269.075 614.628 269.138 614.371 269.264C614.119 269.39 613.895 269.602 613.699 269.901C613.503 270.2 613.347 270.599 613.23 271.098C613.113 271.593 613.055 272.213 613.055 272.96C613.055 273.707 613.113 274.33 613.23 274.829C613.347 275.324 613.503 275.72 613.699 276.019C613.895 276.318 614.119 276.53 614.371 276.656C614.628 276.782 614.896 276.845 615.176 276.845C615.451 276.845 615.717 276.782 615.974 276.656C616.231 276.53 616.457 276.318 616.653 276.019C616.849 275.72 617.005 275.324 617.122 274.829C617.243 274.33 617.304 273.707 617.304 272.96ZM621.4 270.916C621.4 271.513 621.559 271.973 621.876 272.295C622.198 272.612 622.646 272.771 623.22 272.771C623.528 272.771 623.799 272.722 624.032 272.624C624.27 272.526 624.471 272.395 624.634 272.232C624.797 272.064 624.921 271.87 625.005 271.651C625.089 271.427 625.131 271.189 625.131 270.937C625.131 270.643 625.084 270.382 624.991 270.153C624.902 269.92 624.774 269.721 624.606 269.558C624.443 269.395 624.247 269.271 624.018 269.187C623.789 269.098 623.54 269.054 623.269 269.054C622.984 269.054 622.728 269.101 622.499 269.194C622.27 269.287 622.074 269.418 621.911 269.586C621.748 269.749 621.622 269.945 621.533 270.174C621.444 270.398 621.4 270.645 621.4 270.916ZM623.983 274.045C624.076 273.928 624.163 273.819 624.242 273.716C624.321 273.609 624.396 273.501 624.466 273.394C624.223 273.567 623.953 273.7 623.654 273.793C623.355 273.882 623.038 273.926 622.702 273.926C622.338 273.926 621.988 273.865 621.652 273.744C621.316 273.618 621.017 273.434 620.756 273.191C620.495 272.944 620.285 272.64 620.126 272.281C619.972 271.917 619.895 271.499 619.895 271.028C619.895 270.585 619.977 270.167 620.14 269.775C620.308 269.383 620.541 269.042 620.84 268.753C621.139 268.459 621.496 268.228 621.911 268.06C622.326 267.892 622.786 267.808 623.29 267.808C623.789 267.808 624.242 267.89 624.648 268.053C625.054 268.212 625.399 268.438 625.684 268.732C625.969 269.021 626.188 269.369 626.342 269.775C626.496 270.176 626.573 270.62 626.573 271.105C626.573 271.408 626.545 271.695 626.489 271.966C626.438 272.237 626.361 272.5 626.258 272.757C626.16 273.009 626.039 273.259 625.894 273.506C625.754 273.749 625.595 273.996 625.418 274.248L623.045 277.65C622.975 277.753 622.87 277.837 622.73 277.902C622.595 277.967 622.441 278 622.268 278H620.889L623.983 274.045Z" fill="#7A7A7A"/>
<path d="M701.531 271.22L700.145 267.538C700.033 267.253 699.919 266.892 699.802 266.453C699.751 266.672 699.695 266.875 699.634 267.062C699.573 267.244 699.517 267.405 699.466 267.545L698.08 271.22H701.531ZM704.632 275H703.365C703.22 275 703.104 274.965 703.015 274.895C702.926 274.82 702.859 274.729 702.812 274.622L701.972 272.396H697.632L696.792 274.622C696.755 274.715 696.689 274.802 696.596 274.881C696.503 274.96 696.386 275 696.246 275H694.979L698.976 264.92H700.635L704.632 275ZM711.384 267.86V275H710.474C710.274 275 710.145 274.904 710.089 274.713L709.977 274.048C709.828 274.207 709.669 274.351 709.501 274.482C709.338 274.613 709.163 274.725 708.976 274.818C708.79 274.911 708.589 274.984 708.374 275.035C708.164 275.086 707.938 275.112 707.695 275.112C707.303 275.112 706.958 275.047 706.659 274.916C706.361 274.785 706.109 274.601 705.903 274.363C705.703 274.125 705.551 273.84 705.448 273.509C705.346 273.173 705.294 272.804 705.294 272.403V267.86H706.799V272.403C706.799 272.884 706.909 273.257 707.128 273.523C707.352 273.789 707.691 273.922 708.143 273.922C708.475 273.922 708.783 273.847 709.067 273.698C709.357 273.544 709.627 273.334 709.879 273.068V267.86H711.384ZM715.76 271.367C716.227 271.367 716.577 271.248 716.81 271.01C717.043 270.772 717.16 270.462 717.16 270.079C717.16 269.687 717.043 269.377 716.81 269.148C716.577 268.919 716.227 268.805 715.76 268.805C715.298 268.805 714.948 268.919 714.71 269.148C714.477 269.377 714.36 269.687 714.36 270.079C714.36 270.266 714.39 270.438 714.451 270.597C714.512 270.756 714.6 270.893 714.717 271.01C714.834 271.122 714.978 271.211 715.151 271.276C715.328 271.337 715.531 271.367 715.76 271.367ZM717.853 275.35C717.853 275.191 717.806 275.065 717.713 274.972C717.624 274.874 717.503 274.799 717.349 274.748C717.195 274.692 717.015 274.652 716.81 274.629C716.605 274.601 716.385 274.582 716.152 274.573C715.923 274.559 715.688 274.547 715.445 274.538C715.207 274.524 714.976 274.501 714.752 274.468C714.528 274.585 714.344 274.725 714.199 274.888C714.059 275.051 713.989 275.24 713.989 275.455C713.989 275.595 714.024 275.726 714.094 275.847C714.169 275.968 714.281 276.073 714.43 276.162C714.584 276.251 714.778 276.321 715.011 276.372C715.249 276.423 715.534 276.449 715.865 276.449C716.528 276.449 717.025 276.346 717.356 276.141C717.687 275.936 717.853 275.672 717.853 275.35ZM719.365 268.119V268.679C719.365 268.866 719.253 268.98 719.029 269.022L718.315 269.141C718.436 269.412 718.497 269.713 718.497 270.044C718.497 270.394 718.427 270.711 718.287 270.996C718.152 271.281 717.963 271.523 717.72 271.724C717.477 271.925 717.188 272.079 716.852 272.186C716.516 272.293 716.152 272.347 715.76 272.347C715.611 272.347 715.464 272.34 715.319 272.326C715.179 272.307 715.041 272.284 714.906 272.256C714.771 272.335 714.67 272.419 714.605 272.508C714.54 272.597 714.507 272.688 714.507 272.781C714.507 272.935 714.575 273.049 714.71 273.124C714.845 273.199 715.023 273.252 715.242 273.285C715.466 273.318 715.72 273.339 716.005 273.348C716.29 273.357 716.579 273.374 716.873 273.397C717.167 273.42 717.456 273.46 717.741 273.516C718.026 273.567 718.278 273.656 718.497 273.782C718.721 273.903 718.901 274.069 719.036 274.279C719.171 274.489 719.239 274.762 719.239 275.098C719.239 275.406 719.162 275.707 719.008 276.001C718.854 276.295 718.63 276.556 718.336 276.785C718.047 277.014 717.692 277.196 717.272 277.331C716.852 277.471 716.374 277.541 715.837 277.541C715.305 277.541 714.841 277.49 714.444 277.387C714.052 277.284 713.723 277.144 713.457 276.967C713.196 276.794 713 276.594 712.869 276.365C712.743 276.136 712.68 275.898 712.68 275.651C712.68 275.315 712.785 275.028 712.995 274.79C713.21 274.552 713.499 274.365 713.863 274.23C713.667 274.137 713.508 274.008 713.387 273.845C713.27 273.682 713.212 273.467 713.212 273.201C713.212 272.991 713.289 272.772 713.443 272.543C713.597 272.314 713.828 272.121 714.136 271.962C713.781 271.766 713.501 271.507 713.296 271.185C713.091 270.858 712.988 270.478 712.988 270.044C712.988 269.689 713.056 269.37 713.191 269.085C713.331 268.8 713.525 268.558 713.772 268.357C714.019 268.156 714.311 268.002 714.647 267.895C714.988 267.788 715.359 267.734 715.76 267.734C716.376 267.734 716.913 267.862 717.37 268.119H719.365ZM730.312 273.859V275H724.817V273.859H726.917V267.545C726.917 267.321 726.924 267.092 726.938 266.859L725.321 268.224C725.251 268.28 725.179 268.317 725.104 268.336C725.034 268.35 724.966 268.35 724.901 268.336C724.84 268.322 724.784 268.301 724.733 268.273C724.686 268.24 724.649 268.205 724.621 268.168L724.152 267.51L727.19 264.899H728.415V273.859H730.312ZM738.979 269.96C738.979 270.842 738.883 271.605 738.692 272.249C738.505 272.893 738.246 273.427 737.915 273.852C737.584 274.277 737.194 274.592 736.746 274.797C736.298 275.002 735.815 275.105 735.297 275.105C734.779 275.105 734.296 275.002 733.848 274.797C733.4 274.592 733.01 274.277 732.679 273.852C732.352 273.427 732.096 272.893 731.909 272.249C731.722 271.605 731.629 270.842 731.629 269.96C731.629 269.078 731.722 268.315 731.909 267.671C732.096 267.022 732.352 266.488 732.679 266.068C733.01 265.643 733.4 265.328 733.848 265.123C734.296 264.913 734.779 264.808 735.297 264.808C735.815 264.808 736.298 264.913 736.746 265.123C737.194 265.328 737.584 265.643 737.915 266.068C738.246 266.488 738.505 267.022 738.692 267.671C738.883 268.315 738.979 269.078 738.979 269.96ZM737.425 269.96C737.425 269.213 737.364 268.593 737.243 268.098C737.126 267.599 736.97 267.2 736.774 266.901C736.578 266.602 736.352 266.39 736.095 266.264C735.838 266.138 735.572 266.075 735.297 266.075C735.017 266.075 734.749 266.138 734.492 266.264C734.24 266.39 734.016 266.602 733.82 266.901C733.624 267.2 733.468 267.599 733.351 268.098C733.234 268.593 733.176 269.213 733.176 269.96C733.176 270.707 733.234 271.33 733.351 271.829C733.468 272.324 733.624 272.72 733.82 273.019C734.016 273.318 734.24 273.53 734.492 273.656C734.749 273.782 735.017 273.845 735.297 273.845C735.572 273.845 735.838 273.782 736.095 273.656C736.352 273.53 736.578 273.318 736.774 273.019C736.97 272.72 737.126 272.324 737.243 271.829C737.364 271.33 737.425 270.707 737.425 269.96Z" fill="#7A7A7A"/>
<path d="M41 76L100.785 168.77C128.589 211.914 190.854 214.892 223.483 175.271V175.271C248.752 144.586 294.039 138.779 325.839 162.629V162.629C356.953 185.965 400.794 181.378 426.405 152.109L440.202 136.34C469.198 103.202 519.745 100.314 552.327 129.934V129.934C581.377 156.342 625.45 157.292 655.61 132.159L723 76V280H41V76Z" fill="url(#paint0_linear_101_252)" fill-opacity="0.06"/>
<path d="M37 67L101.025 166.535C128.361 209.032 189.001 212.999 221.641 174.425V174.425C246.762 144.736 290.379 139.108 322.214 161.448L323.699 162.49C355.785 185.007 399.654 179.889 425.696 150.592L438.906 135.731C468.132 102.851 518.583 100.166 551.134 129.758V129.758C580.3 156.273 624.544 157.242 654.843 132.031L733 67" stroke="#0295A9" stroke-width="3"/>
<path d="M639.696 48.3821V49.3601H634.818V40.7621H635.976V48.3821H639.696ZM644.024 46.6241C643.532 46.6401 643.112 46.6801 642.764 46.7441C642.42 46.8041 642.138 46.8841 641.918 46.9841C641.702 47.0841 641.544 47.2021 641.444 47.3381C641.348 47.4741 641.3 47.6261 641.3 47.7941C641.3 47.9541 641.326 48.0921 641.378 48.2081C641.43 48.3241 641.5 48.4201 641.588 48.4961C641.68 48.5681 641.786 48.6221 641.906 48.6581C642.03 48.6901 642.162 48.7061 642.302 48.7061C642.49 48.7061 642.662 48.6881 642.818 48.6521C642.974 48.6121 643.12 48.5561 643.256 48.4841C643.396 48.4121 643.528 48.3261 643.652 48.2261C643.78 48.1261 643.904 48.0121 644.024 47.8841V46.6241ZM640.574 44.1401C640.91 43.8161 641.272 43.5741 641.66 43.4141C642.048 43.2541 642.478 43.1741 642.95 43.1741C643.29 43.1741 643.592 43.2301 643.856 43.3421C644.12 43.4541 644.342 43.6101 644.522 43.8101C644.702 44.0101 644.838 44.2521 644.93 44.5361C645.022 44.8201 645.068 45.1321 645.068 45.4721V49.3601H644.594C644.49 49.3601 644.41 49.3441 644.354 49.3121C644.298 49.2761 644.254 49.2081 644.222 49.1081L644.102 48.5321C643.942 48.6801 643.786 48.8121 643.634 48.9281C643.482 49.0401 643.322 49.1361 643.154 49.2161C642.986 49.2921 642.806 49.3501 642.614 49.3901C642.426 49.4341 642.216 49.4561 641.984 49.4561C641.748 49.4561 641.526 49.4241 641.318 49.3601C641.11 49.2921 640.928 49.1921 640.772 49.0601C640.62 48.9281 640.498 48.7621 640.406 48.5621C640.318 48.3581 640.274 48.1181 640.274 47.8421C640.274 47.6021 640.34 47.3721 640.472 47.1521C640.604 46.9281 640.818 46.7301 641.114 46.5581C641.41 46.3861 641.796 46.2461 642.272 46.1381C642.748 46.0261 643.332 45.9621 644.024 45.9461V45.4721C644.024 45.0001 643.922 44.6441 643.718 44.4041C643.514 44.1601 643.216 44.0381 642.824 44.0381C642.56 44.0381 642.338 44.0721 642.158 44.1401C641.982 44.2041 641.828 44.2781 641.696 44.3621C641.568 44.4421 641.456 44.5161 641.36 44.5841C641.268 44.6481 641.176 44.6801 641.084 44.6801C641.012 44.6801 640.95 44.6621 640.898 44.6261C640.846 44.5861 640.802 44.5381 640.766 44.4821L640.574 44.1401ZM650.235 44.2841C650.187 44.3721 650.113 44.4161 650.013 44.4161C649.953 44.4161 649.885 44.3941 649.809 44.3501C649.733 44.3061 649.639 44.2581 649.527 44.2061C649.419 44.1501 649.289 44.1001 649.137 44.0561C648.985 44.0081 648.805 43.9841 648.597 43.9841C648.417 43.9841 648.255 44.0081 648.111 44.0561C647.967 44.1001 647.843 44.1621 647.739 44.2421C647.639 44.3221 647.561 44.4161 647.505 44.5241C647.453 44.6281 647.427 44.7421 647.427 44.8661C647.427 45.0221 647.471 45.1521 647.559 45.2561C647.651 45.3601 647.771 45.4501 647.919 45.5261C648.067 45.6021 648.235 45.6701 648.423 45.7301C648.611 45.7861 648.803 45.8481 648.999 45.9161C649.199 45.9801 649.393 46.0521 649.581 46.1321C649.769 46.2121 649.937 46.3121 650.085 46.4321C650.233 46.5521 650.351 46.7001 650.439 46.8761C650.531 47.0481 650.577 47.2561 650.577 47.5001C650.577 47.7801 650.527 48.0401 650.427 48.2801C650.327 48.5161 650.179 48.7221 649.983 48.8981C649.787 49.0701 649.547 49.2061 649.263 49.3061C648.979 49.4061 648.651 49.4561 648.279 49.4561C647.855 49.4561 647.471 49.3881 647.127 49.2521C646.783 49.1121 646.491 48.9341 646.251 48.7181L646.503 48.3101C646.535 48.2581 646.573 48.2181 646.617 48.1901C646.661 48.1621 646.717 48.1481 646.785 48.1481C646.857 48.1481 646.933 48.1761 647.013 48.2321C647.093 48.2881 647.189 48.3501 647.301 48.4181C647.417 48.4861 647.557 48.5481 647.721 48.6041C647.885 48.6601 648.089 48.6881 648.333 48.6881C648.541 48.6881 648.723 48.6621 648.879 48.6101C649.035 48.5541 649.165 48.4801 649.269 48.3881C649.373 48.2961 649.449 48.1901 649.497 48.0701C649.549 47.9501 649.575 47.8221 649.575 47.6861C649.575 47.5181 649.529 47.3801 649.437 47.2721C649.349 47.1601 649.231 47.0661 649.083 46.9901C648.935 46.9101 648.765 46.8421 648.573 46.7861C648.385 46.7261 648.191 46.6641 647.991 46.6001C647.795 46.5361 647.601 46.4641 647.409 46.3841C647.221 46.3001 647.053 46.1961 646.905 46.0721C646.757 45.9481 646.637 45.7961 646.545 45.6161C646.457 45.4321 646.413 45.2101 646.413 44.9501C646.413 44.7181 646.461 44.4961 646.557 44.2841C646.653 44.0681 646.793 43.8801 646.977 43.7201C647.161 43.5561 647.387 43.4261 647.655 43.3301C647.923 43.2341 648.229 43.1861 648.573 43.1861C648.973 43.1861 649.331 43.2501 649.647 43.3781C649.967 43.5021 650.243 43.6741 650.475 43.8941L650.235 44.2841ZM653.752 49.4561C653.272 49.4561 652.902 49.3221 652.642 49.0541C652.386 48.7861 652.258 48.4001 652.258 47.8961V44.1761H651.526C651.462 44.1761 651.408 44.1581 651.364 44.1221C651.32 44.0821 651.298 44.0221 651.298 43.9421V43.5161L652.294 43.3901L652.54 41.5121C652.552 41.4521 652.578 41.4041 652.618 41.3681C652.662 41.3281 652.718 41.3081 652.786 41.3081H653.326V43.4021H655.084V44.1761H653.326V47.8241C653.326 48.0801 653.388 48.2701 653.512 48.3941C653.636 48.5181 653.796 48.5801 653.992 48.5801C654.104 48.5801 654.2 48.5661 654.28 48.5381C654.364 48.5061 654.436 48.4721 654.496 48.4361C654.556 48.4001 654.606 48.3681 654.646 48.3401C654.69 48.3081 654.728 48.2921 654.76 48.2921C654.816 48.2921 654.866 48.3261 654.91 48.3941L655.222 48.9041C655.038 49.0761 654.816 49.2121 654.556 49.3121C654.296 49.4081 654.028 49.4561 653.752 49.4561ZM664.897 40.7621V41.2421C664.897 41.3781 664.881 41.4901 664.849 41.5781C664.821 41.6661 664.793 41.7401 664.765 41.8001L661.201 48.9821C661.149 49.0861 661.077 49.1761 660.985 49.2521C660.893 49.3241 660.771 49.3601 660.619 49.3601H659.851L663.463 42.2681C663.515 42.1681 663.569 42.0761 663.625 41.9921C663.681 41.9081 663.741 41.8281 663.805 41.7521H659.317C659.249 41.7521 659.189 41.7261 659.137 41.6741C659.085 41.6181 659.059 41.5561 659.059 41.4881V40.7621H664.897ZM673.249 44.7281C673.049 44.4601 672.833 44.2741 672.601 44.1701C672.369 44.0621 672.109 44.0081 671.821 44.0081C671.257 44.0081 670.823 44.2101 670.519 44.6141C670.215 45.0181 670.063 45.5941 670.063 46.3421C670.063 46.7381 670.097 47.0781 670.165 47.3621C670.233 47.6421 670.333 47.8741 670.465 48.0581C670.597 48.2381 670.759 48.3701 670.951 48.4541C671.143 48.5381 671.361 48.5801 671.605 48.5801C671.957 48.5801 672.263 48.5001 672.523 48.3401C672.787 48.1801 673.029 47.9541 673.249 47.6621V44.7281ZM674.317 40.5221V49.3601H673.681C673.529 49.3601 673.433 49.2861 673.393 49.1381L673.297 48.4001C673.037 48.7121 672.741 48.9641 672.409 49.1561C672.077 49.3481 671.693 49.4441 671.257 49.4441C670.909 49.4441 670.593 49.3781 670.309 49.2461C670.025 49.1101 669.783 48.9121 669.583 48.6521C669.383 48.3921 669.229 48.0681 669.121 47.6801C669.013 47.2921 668.959 46.8461 668.959 46.3421C668.959 45.8941 669.019 45.4781 669.139 45.0941C669.259 44.7061 669.431 44.3701 669.655 44.0861C669.879 43.8021 670.153 43.5801 670.477 43.4201C670.805 43.2561 671.173 43.1741 671.581 43.1741C671.953 43.1741 672.271 43.2381 672.535 43.3661C672.803 43.4901 673.041 43.6641 673.249 43.8881V40.5221H674.317ZM679.297 46.6241C678.805 46.6401 678.385 46.6801 678.037 46.7441C677.693 46.8041 677.411 46.8841 677.191 46.9841C676.975 47.0841 676.817 47.2021 676.717 47.3381C676.621 47.4741 676.573 47.6261 676.573 47.7941C676.573 47.9541 676.599 48.0921 676.651 48.2081C676.703 48.3241 676.773 48.4201 676.861 48.4961C676.953 48.5681 677.059 48.6221 677.179 48.6581C677.303 48.6901 677.435 48.7061 677.575 48.7061C677.763 48.7061 677.935 48.6881 678.091 48.6521C678.247 48.6121 678.393 48.5561 678.529 48.4841C678.669 48.4121 678.801 48.3261 678.925 48.2261C679.053 48.1261 679.177 48.0121 679.297 47.8841V46.6241ZM675.847 44.1401C676.183 43.8161 676.545 43.5741 676.933 43.4141C677.321 43.2541 677.751 43.1741 678.223 43.1741C678.563 43.1741 678.865 43.2301 679.129 43.3421C679.393 43.4541 679.615 43.6101 679.795 43.8101C679.975 44.0101 680.111 44.2521 680.203 44.5361C680.295 44.8201 680.341 45.1321 680.341 45.4721V49.3601H679.867C679.763 49.3601 679.683 49.3441 679.627 49.3121C679.571 49.2761 679.527 49.2081 679.495 49.1081L679.375 48.5321C679.215 48.6801 679.059 48.8121 678.907 48.9281C678.755 49.0401 678.595 49.1361 678.427 49.2161C678.259 49.2921 678.079 49.3501 677.887 49.3901C677.699 49.4341 677.489 49.4561 677.257 49.4561C677.021 49.4561 676.799 49.4241 676.591 49.3601C676.383 49.2921 676.201 49.1921 676.045 49.0601C675.893 48.9281 675.771 48.7621 675.679 48.5621C675.591 48.3581 675.547 48.1181 675.547 47.8421C675.547 47.6021 675.613 47.3721 675.745 47.1521C675.877 46.9281 676.091 46.7301 676.387 46.5581C676.683 46.3861 677.069 46.2461 677.545 46.1381C678.021 46.0261 678.605 45.9621 679.297 45.9461V45.4721C679.297 45.0001 679.195 44.6441 678.991 44.4041C678.787 44.1601 678.489 44.0381 678.097 44.0381C677.833 44.0381 677.611 44.0721 677.431 44.1401C677.255 44.2041 677.101 44.2781 676.969 44.3621C676.841 44.4421 676.729 44.5161 676.633 44.5841C676.541 44.6481 676.449 44.6801 676.357 44.6801C676.285 44.6801 676.223 44.6621 676.171 44.6261C676.119 44.5861 676.075 44.5381 676.039 44.4821L675.847 44.1401ZM687.072 43.2821L683.682 51.1541C683.646 51.2341 683.6 51.2981 683.544 51.3461C683.492 51.3941 683.41 51.4181 683.298 51.4181H682.506L683.616 49.0061L681.108 43.2821H682.032C682.124 43.2821 682.196 43.3061 682.248 43.3541C682.304 43.3981 682.342 43.4481 682.362 43.5041L683.988 47.3321C684.052 47.5001 684.106 47.6761 684.15 47.8601C684.206 47.6721 684.266 47.4941 684.33 47.3261L685.908 43.5041C685.932 43.4401 685.972 43.3881 686.028 43.3481C686.088 43.3041 686.154 43.2821 686.226 43.2821H687.072ZM691.45 44.2841C691.402 44.3721 691.328 44.4161 691.228 44.4161C691.168 44.4161 691.1 44.3941 691.024 44.3501C690.948 44.3061 690.854 44.2581 690.742 44.2061C690.634 44.1501 690.504 44.1001 690.352 44.0561C690.2 44.0081 690.02 43.9841 689.812 43.9841C689.632 43.9841 689.47 44.0081 689.326 44.0561C689.182 44.1001 689.058 44.1621 688.954 44.2421C688.854 44.3221 688.776 44.4161 688.72 44.5241C688.668 44.6281 688.642 44.7421 688.642 44.8661C688.642 45.0221 688.686 45.1521 688.774 45.2561C688.866 45.3601 688.986 45.4501 689.134 45.5261C689.282 45.6021 689.45 45.6701 689.638 45.7301C689.826 45.7861 690.018 45.8481 690.214 45.9161C690.414 45.9801 690.608 46.0521 690.796 46.1321C690.984 46.2121 691.152 46.3121 691.3 46.4321C691.448 46.5521 691.566 46.7001 691.654 46.8761C691.746 47.0481 691.792 47.2561 691.792 47.5001C691.792 47.7801 691.742 48.0401 691.642 48.2801C691.542 48.5161 691.394 48.7221 691.198 48.8981C691.002 49.0701 690.762 49.2061 690.478 49.3061C690.194 49.4061 689.866 49.4561 689.494 49.4561C689.07 49.4561 688.686 49.3881 688.342 49.2521C687.998 49.1121 687.706 48.9341 687.466 48.7181L687.718 48.3101C687.75 48.2581 687.788 48.2181 687.832 48.1901C687.876 48.1621 687.932 48.1481 688 48.1481C688.072 48.1481 688.148 48.1761 688.228 48.2321C688.308 48.2881 688.404 48.3501 688.516 48.4181C688.632 48.4861 688.772 48.5481 688.936 48.6041C689.1 48.6601 689.304 48.6881 689.548 48.6881C689.756 48.6881 689.938 48.6621 690.094 48.6101C690.25 48.5541 690.38 48.4801 690.484 48.3881C690.588 48.2961 690.664 48.1901 690.712 48.0701C690.764 47.9501 690.79 47.8221 690.79 47.6861C690.79 47.5181 690.744 47.3801 690.652 47.2721C690.564 47.1601 690.446 47.0661 690.298 46.9901C690.15 46.9101 689.98 46.8421 689.788 46.7861C689.6 46.7261 689.406 46.6641 689.206 46.6001C689.01 46.5361 688.816 46.4641 688.624 46.3841C688.436 46.3001 688.268 46.1961 688.12 46.0721C687.972 45.9481 687.852 45.7961 687.76 45.6161C687.672 45.4321 687.628 45.2101 687.628 44.9501C687.628 44.7181 687.676 44.4961 687.772 44.2841C687.868 44.0681 688.008 43.8801 688.192 43.7201C688.376 43.5561 688.602 43.4261 688.87 43.3301C689.138 43.2341 689.444 43.1861 689.788 43.1861C690.188 43.1861 690.546 43.2501 690.862 43.3781C691.182 43.5021 691.458 43.6741 691.69 43.8941L691.45 44.2841Z" fill="#7A7A7A"/>
<path d="M704.04 47.085L700.08 42.9973L701.401 41.635L704.04 44.3605L706.679 41.635L708 42.9973L704.04 47.085Z" fill="#7A7A7A"/>
<rect x="619.3" y="30.3" width="103.12" height="28.12" rx="5.588" stroke="#7A7A7A" stroke-width="0.6"/>
<rect x="723" y="63" width="25" height="27" fill="white"/>
<rect x="16" y="59" width="25" height="27" fill="white"/>
<defs>
<linearGradient id="paint0_linear_101_252" x1="382" y1="76" x2="382" y2="280" gradientUnits="userSpaceOnUse">
<stop offset="0.447917" stop-color="#12ADC1"/>
<stop offset="1" stop-color="#12ADC1" stop-opacity="0"/>
</linearGradient>
</defs>
</svg>
